<svg xmlns="http://www.w3.org/2000/svg" viewBox="0 0 300.4 51.37"><defs><style>.cls-1{fill:#0d6f3c;}</style></defs><g id="Warstwa_2" data-name="Warstwa 2"><g id="Warstwa_1-2" data-name="Warstwa 1"><path class="cls-1" d="M199.23,1.33c-.7.1-1.4.2-2.1.23a9,9,0,0,1-2.08-.16l.5.5-6.69,6.69a20.73,20.73,0,0,1-6.05,4.18,26,26,0,0,0-3.65-4.65l-.34-.34A25.55,25.55,0,0,0,169.6,1.9l.78-.32c-.3,0-.6,0-.91-.05h-.3c-3,.12-6.11,0-9.18-.14-1.62,0-3.24,0-4.87,0a4.8,4.8,0,0,1-1.45.25c-1.87,0-3.74-.23-5.62-.23A5.5,5.5,0,0,1,147,1.25c-5.42.24-10.9.14-16.24-.13h0a3.75,3.75,0,0,1-2,.09l-.13,0c.55.25,1.1.49,1.67.7A25.55,25.55,0,0,0,121,7.78l-.34.34a26.44,26.44,0,0,0-3.65,4.65,20.73,20.73,0,0,1-6-4.18L104.31,1.9l.56-.57c-1-.05-1.91-.18-2.86-.29a5.53,5.53,0,0,1-1.22,0h-.06a1.59,1.59,0,0,0,.19,2l7.82,7.82a23.83,23.83,0,0,0,6.8,4.74,25.44,25.44,0,0,0-2.32,10.59V37a1.6,1.6,0,0,0,1.6,1.59h10.83a25.47,25.47,0,0,0,10.59-2.31,23.83,23.83,0,0,0,4.74,6.8l7.82,7.82a1.61,1.61,0,0,0,2.26,0l7.82-7.82a23.64,23.64,0,0,0,4.74-6.8,25.5,25.5,0,0,0,10.59,2.31H185a1.6,1.6,0,0,0,1.6-1.59V26.18a25.44,25.44,0,0,0-2.32-10.59,23.67,23.67,0,0,0,6.8-4.75L198.94,3A1.52,1.52,0,0,0,199.23,1.33Zm-64.17,32a22.31,22.31,0,0,1-9.41,2.09h-9.24V26.18a22.37,22.37,0,0,1,2.1-9.42,23.83,23.83,0,0,0,7.16,1.1h.64A23.83,23.83,0,0,0,136,15.78,24,24,0,0,0,134,25.52v.64A24.19,24.19,0,0,0,135.06,33.32Zm-8.75-18.65h-.64a21.11,21.11,0,0,1-5.58-.78A22.51,22.51,0,0,1,123,10.38l.34-.34a22.19,22.19,0,0,1,15.8-6.54h7L141,8.59A20.64,20.64,0,0,1,126.31,14.67Zm10.85,11.49v-.64a20.64,20.64,0,0,1,6.08-14.67l5.09-5.1v7a22.19,22.19,0,0,1-6.54,15.8l-.34.34a23,23,0,0,1-3.51,2.87A21.11,21.11,0,0,1,137.16,26.16Zm19.46,14.67-6.69,6.69-6.69-6.69a20.76,20.76,0,0,1-4.19-6,25.31,25.31,0,0,0,4.66-3.66l.33-.33a25.44,25.44,0,0,0,5.89-9.22,25.43,25.43,0,0,0,5.88,9.21l.34.34a25.31,25.31,0,0,0,4.66,3.66A20.76,20.76,0,0,1,156.62,40.83Zm6.08-14.67a21,21,0,0,1-.78,5.57,22.45,22.45,0,0,1-3.51-2.87l-.33-.34a22.2,22.2,0,0,1-6.55-15.8v-7l5.1,5.09a20.67,20.67,0,0,1,6.07,14.68ZM158.88,8.59l-5.1-5.1h7A22.2,22.2,0,0,1,176.56,10l.34.34a22,22,0,0,1,2.87,3.51,21,21,0,0,1-5.58.78h-.64A20.64,20.64,0,0,1,158.88,8.59Zm24.56,26.82h-9.23a22.21,22.21,0,0,1-9.42-2.09,23.83,23.83,0,0,0,1.1-7.16v-.64a23.87,23.87,0,0,0-2.08-9.74,23.91,23.91,0,0,0,9.74,2.08h.64a23.83,23.83,0,0,0,7.16-1.1,22.21,22.21,0,0,1,2.09,9.42Z"/><polyline class="cls-1" points="0 2.01 300.4 2.01 300.4 0 0 0"/></g></g></svg>