<svg xmlns="http://www.w3.org/2000/svg" viewBox="0 0 512 409.58"><defs><style>.cls-1{fill:#fff;}</style></defs><g id="Warstwa_2" data-name="Warstwa 2"><g id="Layer_1" data-name="Layer 1"><path class="cls-1" d="M512,152.82A25.67,25.67,0,0,0,487.16,128l-3.55,0a332.86,332.86,0,0,0-59.67,6.33c-5.09-38.4-15.39-65.66-16.24-67.84a25.63,25.63,0,0,0-34.17-14.15c-1.87.83-22.55,10.15-48.35,28.31-22.6-43-48.76-70.73-50.68-72.74a25.61,25.61,0,0,0-37,0c-1.92,2-28.11,29.78-50.72,72.83-25.74-18.11-46.44-27.57-48.31-28.39a25.59,25.59,0,0,0-34.16,14.15c-.85,2.17-11.15,29.43-16.23,67.84A332.13,332.13,0,0,0,28.4,128l-3.56,0A25.66,25.66,0,0,0,.05,152.82c-.16,4.79-2.88,118.35,67.74,189,64.53,64.52,165.77,67.78,185.42,67.78l2.62,0c.06,0,.11,0,.16,0l.15,0,2.63,0c19.64,0,120.89-3.26,185.41-67.78C514.83,271.17,512.11,157.62,512,152.82ZM383.84,75.76s10.26,26.86,14.94,64.56a270,270,0,0,0-45.54,17.21,280,280,0,0,0-16.92-53.25C362.47,85.33,383.84,75.76,383.84,75.76Zm-255.67,0s21.37,9.52,47.53,28.47a280.93,280.93,0,0,0-17,53.43,271.22,271.22,0,0,0-45.52-17.29C117.9,102.65,128.17,75.76,128.17,75.76ZM85.91,323.7C22.3,260.09,25.64,153.63,25.64,153.63s1,0,2.75,0c13.42,0,73.2,2.13,126.19,30.68-.62,6.73-1,13.57-1,20.51,0,78.81,42.77,145.38,67.27,177.08C184.17,377.51,126.4,364.19,85.91,323.7Zm170.66,59.69c-.5-.16-1-.32-1.62-.55-9-9.82-75.75-85.76-75.75-178,0-99,76.8-179.2,76.8-179.2s76.8,80.23,76.8,179.2C332.8,299.76,262.28,377.26,256.57,383.39ZM426.11,323.7c-40.49,40.49-98.26,53.81-135,58.17,24.49-31.7,67.26-98.27,67.26-177.08,0-7-.35-13.86-1-20.64,53-28.52,112.8-30.56,126.2-30.56,1.79,0,2.76,0,2.76,0S489.71,260.09,426.11,323.7Z"/></g></g></svg>