<svg xmlns="http://www.w3.org/2000/svg" viewBox="0 0 600.01 600.01"><defs><style>.cls-1{fill:#e60049;}</style></defs><g id="Warstwa_2" data-name="Warstwa 2"><g id="Warstwa_1-2" data-name="Warstwa 1"><path class="cls-1" d="M600,325.11v-1.17c-6.5,3.83-13.06,7.64-14.68,8.64-10.6,6.56-18.57,12.56-24.68,19.09-5.58,5.95-12.44,10.06-22.42,14.15-1.45.6-3,1.2-4.83,1.9l-4.75,1.82c-9.78,3.75-14.8,6.27-19,10.1s-9.65,6.6-16.77,8.84c-1.95.6-4,1.17-6.47,1.8l-6.14,1.53c-5.29,1.35-8.3,2.37-10.54,3.78-3.08,1.92-6.63,3.26-12.74,5-1.6.46-3.21.92-4.82,1.36-2,.58-3.6,1-5.17,1.52a111.65,111.65,0,0,0-11.2,4.05c-2.7,1.15-5.5,3.93-8.78,8.4q-3.24,4.49-6.15,9.2c-5.75,9.07-7.58,11.74-10.24,14.51a51,51,0,0,1-4.6,4.22c-2.33,1.9-10.39,7.54-11.81,8.74a14.71,14.71,0,0,0-3.67,4.15c-1.24,2.3-1.9,4.57-2.78,8.87-2.17,10.61-3.52,14.81-8.2,22.1-4.07,6.33-6.8,9.88-9.83,13-.47.48-.95,1-1.5,1.48l-3.75,3.56c-1.67,1.6-3.18,3.12-4.86,4.9a42.54,42.54,0,0,0-9.89,16.94c-2.5,8.13-2.72,15.47-1.76,27.22.47,5.82.51,6.36.51,8.18,0,10.51.12,17.53.63,25.78.24,4.05.56,7.8,1,11.22h.9c-1.13-9.58-1.5-21.83-1.5-37,0-1.86,0-2.4-.52-8.26-.94-11.63-.72-18.87,1.73-26.85a41.44,41.44,0,0,1,9.65-16.55c1.67-1.76,3.18-3.27,4.83-4.85.63-.6,3.13-3,3.75-3.57s1-1,1.52-1.5c3.09-3.16,5.86-6.76,10-13.15,4.77-7.42,6.15-11.71,8.34-22.44.86-4.21,1.5-6.4,2.68-8.6a14,14,0,0,1,3.43-3.86c1.38-1.15,9.43-6.8,11.8-8.72a54.43,54.43,0,0,0,4.7-4.3c2.72-2.85,4.56-5.54,10.36-14.67q2.89-4.68,6.1-9.15c3.2-4.33,5.9-7,8.37-8.07a110.89,110.89,0,0,1,11.1-4q3.78-1.17,7.6-2.2l2.38-.67c6.19-1.79,9.81-3.16,13-5.15,2.14-1.33,5.08-2.33,10.27-3.65l6.14-1.53c2.5-.63,4.55-1.2,6.52-1.82,7.24-2.27,12.79-5.06,17.15-9.05,4.05-3.72,9-6.2,18.66-9.9l4.75-1.82c1.87-.72,3.39-1.31,4.85-1.91,10.1-4.15,17.07-8.32,22.76-14.4,6-6.45,13.95-12.4,24.49-18.92,1.56-1,7.82-4.6,14.15-8.33V260.52c-4,8.15-8.52,14.85-12.7,17.9-2.51,1.82-5.38,4-9,6.92q-3.12,2.48-6.23,5l-1.27,1-4.87,3.9c-7.55,6-12.9,10.05-17.61,13.19-3.1,2.06-3.86,2.78-8.06,7.13-5.84,6.07-11.72,8.62-29.15,10.95-11.3,1.5-20,4.91-30.75,11.07-1.65.94-7.27,4.27-7,4.1-2.7,1.58-4.69,2.69-6.64,3.66-5.63,2.8-10.47,4.17-15.71,4.17-17.13,0-41.44,11.51-51.63,22.83C387.32,385.74,368,400,354.12,403.5c-7.4,1.85-11.85,7.05-14,14.69A46.82,46.82,0,0,0,338.5,432a34.74,34.74,0,0,0,.24,3.63A36.92,36.92,0,0,1,338,448.9c-1.53,6.2-4.89,12.6-10.59,19.43C313.51,485,304.5,514.91,304.5,540c0,2.39,0,4.26.06,8.75.12,10.8.1,15.8-.22,22-.56,11.18-2.09,20.73-5,29.3h-1c2.94-8.56,4.49-18.12,5-29.35.31-6.13.34-11.1.22-21.9,0-4.48-.06-6.36-.06-8.75,0-25.32,9.07-55.47,23.12-72.32,5.6-6.72,8.88-13,10.38-19a36,36,0,0,0,.74-12.93,36,36,0,0,1-.24-3.72,47.57,47.57,0,0,1,1.62-14.1c2.28-8,7-13.44,14.76-15.39,13.6-3.4,32.82-17.59,44.75-30.84C409,360.15,433.58,348.51,451,348.51c5.07,0,9.77-1.33,15.26-4.07,1.93-1,3.9-2.05,6.58-3.62-.3.18,5.33-3.16,7-4.11,10.82-6.21,19.66-9.67,31.11-11.2,17.23-2.3,22.9-4.75,28.57-10.64,4.25-4.41,5-5.16,8.22-7.28,4.68-3.11,10-7.14,17.55-13.14l4.86-3.89,1.28-1,6.23-5c3.67-2.9,6.55-5.12,9.07-6.95,4.37-3.19,9.16-10.56,13.29-19.4v66.9Zm0-116.23c-.62,0-1.27.06-2,.13-6.13.63-13.83,3.45-21.83,7.45-3.64,1.82-8.46,2.67-14.17,2.71a84.09,84.09,0,0,1-14.73-1.33c-1.7-.3-3.26-.61-4.67-.93a30.5,30.5,0,0,0-3.55-.57q-8.31-.69-16.66-.88c-10.42-.16-17.2.74-18,2.73-.38,1,.6,2.55,3,4.87,1,1,2.22,2,4,3.55l4.79,4a12.49,12.49,0,0,0,5.5,2.5c.7.16.86.2,2.64.54,3.53.7,5,1.25,6.15,2.63,1.41,1.76,1.4,4.54-.15,8.88-2.44,6.83-5.72,10-10.19,10.33-3.63.23-7.6-1.29-14.52-5.06-4.53-2.47-6.82-7.3-8.32-15.26-.17-.87-.32-1.78-.5-2.86l-.43-2.76c-1.05-6.58-1.9-9.2-3.73-10.11a19.34,19.34,0,0,0-2.36-1,22,22,0,0,0-8.1-.92c-2.29.07-14.7,1-13.77.93-20.55,1.37-28.8,5.05-37.09,15q-2.19,2.67-4.25,5.44l-2.3,3.09-2.51,3.32c-4.1,5.36-7.06,8.48-10.39,11.12-.65.52-1.33,1-2.13,1.62L405.77,261q-2.64,1.92-5.16,4a191.38,191.38,0,0,0-16.25,15.38c-8.25,8.58-11.78,13.54-11.7,15.95.07,1.65,1.64,2.11,6.79,2.38,1.61.09,2.15.12,3,.2a16.66,16.66,0,0,1,6.81,1.68c7.48,4.15,11.63,7.26,13.95,11.58,3.3,6.15.8,12.88-8.89,20.26-8.28,6.3-11.1,10.37-11.31,15a25.82,25.82,0,0,0,.26,4.43c.69,6.47.25,10.65-2.8,17.42a44.2,44.2,0,0,1-4.16,7.53c-2.82,4-5.47,5.74-10.6,7.69-.43.16-3.34,1.23-4.27,1.59-1.8.68-3.38,1.36-5,2.14a71.76,71.76,0,0,0-13.1,8.24c-8.44,6.51-13.23,14.56-16,25.06-1.1,4.2-1.55,6.81-2.8,15.21-1.26,8.6-2.17,12.64-4.08,16.55-2.1,4.28-11.93,26.59-13,28.88q-3.06,6.76-6.37,13.41c-4.07,8.11-7.61,14.07-10.73,17.81-5.38,6.46-9,14.37-13.77,28.42q-1,2.79-1.89,5.6c-1.8,5.35-3,8.6-4.26,11.85C264.33,574.52,245,585.51,224,585.51c-11.2,0-20.58-2.74-31-8.55-5.6-3.13-4.55-2.42-22.26-14.54-14.33-9.8-17.7-10.73-20.47-6.9-.37.5-1.81,2.74-1.83,2.77a51.63,51.63,0,0,1-4.94,5.9c-.73.79-5.52,5.87-7,7.45-2.38,2.6-4.3,4.81-6,6.93a45.44,45.44,0,0,0-5.08,7.66c-1.29,2.57-1.9,5.25-2.66,10.6-.15,1.06-.3,2.12-.46,3.18h-1l.47-3.32c.77-5.45,1.4-8.2,2.75-10.9a46.57,46.57,0,0,1,5.2-7.84c1.7-2.14,3.63-4.38,6-7,1.45-1.59,6.24-6.68,7-7.46a52.35,52.35,0,0,0,4.84-5.78s1.47-2.26,1.86-2.8c3.25-4.5,7.08-3.44,21.84,6.67C189,573.68,187.9,573,193.47,576.08c10.3,5.73,19.5,8.43,30.53,8.43,20.65,0,39.57-10.77,45.54-25.69q2.29-5.84,4.24-11.8l1.88-5.6c4.83-14.16,8.47-22.14,14-28.73,3.05-3.66,6.56-9.57,10.6-17.61,2-3.93,4-8.31,6.35-13.38,1-2.28,10.88-24.61,13-28.91,1.85-3.79,2.75-7.76,4-16.25s1.7-11.07,2.81-15.32c2.8-10.7,7.71-18.94,16.33-25.6A73.29,73.29,0,0,1,356,387.27c1.66-.8,3.27-1.48,5.08-2.18.94-.36,3.86-1.43,4.28-1.59,5-1.88,7.44-3.55,10.14-7.33a43.57,43.57,0,0,0,4.06-7.37c3-6.58,3.39-10.59,2.72-16.9a27,27,0,0,1-.27-4.58c.22-4.94,3.21-9.24,11.7-15.7,9.33-7.11,11.66-13.34,8.62-19-2.2-4.09-6.25-7.12-13.55-11.17a15.8,15.8,0,0,0-6.42-1.57c-.8-.07-1.34-.1-2.95-.19-5.77-.3-7.63-.85-7.72-3.34-.1-2.81,3.5-7.87,12-16.69A191.56,191.56,0,0,1,400,264.21c1.79-1.47,3.42-2.72,5.2-4l4.12-2.94c.79-.58,1.46-1.08,2.1-1.59a58.65,58.65,0,0,0,10.21-10.94c.84-1.1,1.67-2.21,2.5-3.32l2.31-3.09c1.8-2.39,3-4,4.29-5.48,8.47-10.17,17-14,37.27-15.3-.44,0,12-.9,14.32-1a22.94,22.94,0,0,1,8.46,1,20.15,20.15,0,0,1,2.47,1c2.27,1.14,3.17,3.87,4.27,10.85l.44,2.76c.17,1.07.33,2,.5,2.83,1.44,7.69,3.62,12.29,7.8,14.57,6.76,3.68,10.6,5.15,14,4.94,4-.25,7-3.17,9.3-9.67,1.45-4,1.46-6.49.32-7.92-.9-1.12-2.28-1.62-5.57-2.27-.89-.16-1.78-.35-2.67-.55a13.48,13.48,0,0,1-5.93-2.71c-1.58-1.36-3.17-2.69-4.78-4q-2.1-1.74-4.08-3.6c-2.73-2.6-3.86-4.43-3.28-5.95,1-2.64,7.82-3.54,18.93-3.37q8.38.14,16.73.88c2.76.39,3.2.49,3.68.6,1.4.3,3,.62,4.62.91a82.74,82.74,0,0,0,14.56,1.32c5.56,0,10.24-.86,13.73-2.6,8.1-4,15.89-6.9,22.17-7.56.7-.07,1.4-.11,2-.13v1Zm0-100.94v1.5c-8.62,16-17.27,29.55-23.65,35.92-3.19,3.2-7.62,4.9-13.54,5.56-4.45.48-8.28.4-19.18-.2-9.91-.55-15.32-.44-20.52.78a84.41,84.41,0,0,1-15,2.11l-2.25.14c-12.49.75-19.37,1.78-32.72,5.74q-6.75,2-14.3,3.48a246.53,246.53,0,0,1-32.6,4c-7.56.45-13.21.57-20.24.57a36.58,36.58,0,0,0-18,5.18c-8.3,4.87-15.06,12.87-19.53,24.5a68.11,68.11,0,0,1-4.56,9.8c-3.6,6.2-6.92,9-13.38,12.18l-4,2a64.62,64.62,0,0,0-15.16,10.25c-8.2,7.33-13.72,16.63-22.54,35.6l-2.08,4.49c-7.3,15.7-11.5,23.3-17.35,29.87-7.7,8.66-20.25,14.42-40.31,20.08-4.37,1.23-19,5.08-19.24,5.13a143,143,0,0,0-15.63,4.92C203.64,335.69,195.48,342,177.81,358l-1.7,1.54c-8.58,7.76-13.41,11.9-18.81,15.88-4,2.9-8,5.67-13,8.91-2.06,1.34-10.3,6.6-12.33,7.94-11.52,7.5-18.53,13-24.62,20.08a62.12,62.12,0,0,0-6.44,8.85c-4.13,6.91-6.27,13.15-9.2,25.11l-1.54,6.26c-.6,2.45-1.15,4.54-1.72,6.58-3,10.7-6.9,17.36-14.78,26.91l-4.1,5c-1.44,1.73-2.83,3.5-4.19,5.3A23.72,23.72,0,0,0,62,502.59c-1.16,3.23-1.52,5.9-1.87,11.94-.58,10.05-1.42,15-4.63,22.67-1.57,3.72-5.66,14-6.41,15.8a73,73,0,0,1-3.57,7.4c-2.88,5.14-6.71,10.12-13.12,17-6,6.36-8.87,10.9-10.61,16-.53,1.59-1,3.19-1.38,4.82L19.92,600h-1l.52-2.08c.52-2.09.92-3.49,1.4-4.9,1.8-5.25,4.78-9.9,10.84-16.36,6.35-6.78,10.13-11.7,13-16.77a73,73,0,0,0,3.52-7.29c.75-1.76,4.84-12.06,6.4-15.8,3.17-7.5,4-12.4,4.56-22.33.35-6.14.72-8.88,1.93-12.23a25.08,25.08,0,0,1,3.58-6.54c1.27-1.7,2.6-3.37,4.22-5.34l4.11-4.95c7.8-9.46,11.66-16,14.59-26.54.56-2,1.1-4.12,1.71-6.56l1.53-6.26c3-12,5.13-18.36,9.32-25.39a63.63,63.63,0,0,1,6.54-9c6.17-7.12,13.24-12.7,24.83-20.26,2-1.33,10.28-6.6,12.33-7.94,5-3.22,9-6,12.92-8.87,5.37-3.95,10.19-8.08,18.74-15.82l1.7-1.54c17.76-16.09,26-22.43,36.67-26.7a142.21,142.21,0,0,1,15.75-5c.21-.06,14.87-3.9,19.22-5.13,19.9-5.61,32.32-11.31,39.85-19.78,5.76-6.48,9.93-14,17.18-29.64l2.09-4.5c8.87-19.07,14.44-28.46,22.77-35.9a65.67,65.67,0,0,1,15.38-10.4l4-2c6.3-3.1,9.47-5.77,13-11.77a67.28,67.28,0,0,0,4.48-9.67c4.56-11.84,11.47-20,20-25a37.57,37.57,0,0,1,18.5-5.32c7,0,12.65-.12,20.17-.57a246,246,0,0,0,32.47-4c5-1,9.75-2.13,14.22-3.45a123.84,123.84,0,0,1,32.94-5.78l2.24-.14a82.39,82.39,0,0,0,14.85-2.09c5.31-1.25,10.79-1.35,22.6-.7,9,.5,12.84.58,17.21.1,5.71-.62,9.94-2.26,12.95-5.26,6.44-6.45,15.3-20.37,24.35-36.72Zm0,450.21c-1.28-4.6-2.2-10.55-3.33-20.25l-.24-2-.23-2c-1.82-15.7-3.07-22-5.55-24.47s-3-5-2.52-8.64c.1-.6.18-1.1.39-2.15.69-3.54.77-5,.08-6.84-.91-2.38-3.31-4.41-7.79-6.26-5.08-2.09-6.52-4.84-4.89-8.44a21.85,21.85,0,0,1,3.52-5c1-1.2,5.48-6,5.08-5.53,6.15-6.7,9-11.34,9-16.48a15.2,15.2,0,0,1,6.5-12.89v1.26A14.18,14.18,0,0,0,594.5,450c0,5.47-2.93,10.29-9.24,17.16.38-.42-4,4.33-5.07,5.5a21.22,21.22,0,0,0-3.36,4.77c-1.37,3-.23,5.22,4.36,7.1s7.32,4.16,8.34,6.83c.78,2,.7,3.67,0,7.4-.2,1-.3,1.51-.38,2.09-.48,3.33,0,5.59,2.23,7.8,2.74,2.74,4,9,5.84,25.06l.24,2,.23,2c.82,7,1.53,12.06,2.34,16v4.33ZM600,496c-1.4-3.13-4.43-9.9-5-11.17-1-2.53-1.25-3.8-.91-5.18.2-.84,2.05-4.68,2.32-5.33a71,71,0,0,0,3.54-11.2v4a63.12,63.12,0,0,1-2.62,7.6c-.31.75-2.09,4.46-2.27,5.18-.28,1.12-.08,2.22.87,4.57.41,1,2.5,5.7,4,9.09Zm0-85.09a20.4,20.4,0,0,1-6.4,4.13c-.25.1-14,5.47-20.4,8.43-9.35,4.32-16.7,5.9-23,5.25-5.08-.53-9-2.25-14.77-5.92l-3.2-2.07q-2.66-1.74-5.44-3.27c-4-2.18-3.25-5.8,1.47-10.47,3.71-3.68,9.6-7.93,18.73-13.8l4.46-2.82c18-11.33,18.22-11.5,22.27-14.74,11.25-9,19.69-14,26.31-15.1v1c-6.37,1.1-14.62,6-25.69,14.86-4.1,3.28-4.34,3.44-22.36,14.8L547.5,394c-9.07,5.83-14.92,10.05-18.57,13.66-4.31,4.28-4.95,7.13-1.7,8.88,1.7.91,3.29,1.88,5.5,3.3l3.2,2.08c5.64,3.59,9.45,5.25,14.34,5.76,6.13.64,13.32-.9,22.52-5.15,6.46-3,20.18-8.35,20.4-8.44a18.29,18.29,0,0,0,6.81-4.69v1.47Zm0-41.37v1c-6.56.26-12.11,3.13-19.71,9.08l-4.63,3.68a52.4,52.4,0,0,1-4.4,3.14c-.82.52-5.51,3.33-6.22,3.76-3.31,2-6.15,3.8-8.87,5.6s-5.53,3.83-8.16,5.92c-4.61,3.72-7.4,6.9-8,9.35-.63,2.67,1.48,4.53,7.05,5.46a50,50,0,0,0,30.45-4.65,61.87,61.87,0,0,0,17.1-12.2,42.05,42.05,0,0,0,5.36-7.42v1.92a38.91,38.91,0,0,1-4.64,6.19A63,63,0,0,1,578,412.77a51,51,0,0,1-31.05,4.73c-6.06-1-8.65-3.29-7.85-6.67.64-2.74,3.53-6.05,8.31-9.9,2.35-1.9,5.1-3.88,8.24-6,2.73-1.82,5.58-3.61,8.9-5.62.72-.44,5.4-3.24,6.22-3.75,1.26-.8,2.6-1.76,4.3-3.09.8-.62,3.9-3.1,4.63-3.67,7.77-6.1,13.49-9,20.33-9.3Zm0-154.6v1c-1.75-.24-4.3.23-7.82,1.55-10,3.75-13.8,5.07-19.15,6.76-1.78.56-2.63.83-3.87,1.24a32.64,32.64,0,0,1-6.74,1.16l-2.64.3c-7.8.94-11.28,2.47-11.28,6.07,0,4.45,2.89,13.18,8,25.81a57.94,57.94,0,0,1,2.33,7.6c.29,1.15.57,2.3.84,3.46,1.86,7.62,3.17,10.71,5.56,11.67,2.21.88,4.7.6,7.47-.72,3.48-1.69,7.22-4.94,11.2-9.47,1.52-1.7,3-3.49,4.59-5.57l3.16-4.1c2.59-3.23,6.07-12.21,8.39-20.23v3.45c-2.29,7.2-5.27,14.5-7.61,17.41-.44.55-2.67,3.46-3.15,4.09-1.63,2.1-3.1,3.9-4.62,5.62-4.08,4.61-7.9,7.94-11.53,9.7-3,1.44-5.77,1.75-8.28.74-2.84-1.13-4.2-4.34-6.15-12.35l-.84-3.46a56.15,56.15,0,0,0-2.28-7.46c-5.14-12.8-8-21.55-8-26.19,0-4.37,3.84-6.06,12.16-7.07.88-.11,1.77-.21,2.65-.3a32.87,32.87,0,0,0,6.53-1.1c1.26-.42,2.1-.7,3.88-1.26,5.34-1.68,9.11-3,19.1-6.74,3.53-1.32,6.22-1.84,8.18-1.61ZM0,292c10.13-11.31,18.13-23.2,23.07-35.39,3.3-8.14,6.09-16.12,10.81-30.55l1.59-4.84c6.53-19.94,10.11-29.82,14.77-39.56,6.07-12.72,12.55-21.18,20.27-25.54,6.66-3.76,10.2-7.86,12.22-13.15a46.57,46.57,0,0,0,1.86-6.58c1.23-5.2,2-7.59,3.93-10.36,2.45-3.62,6.27-6.53,12.1-9,15.78-6.58,16.73-7,18-9,.65-1,.83-2.15.74-4.51,0-.73-.23-3.82-.24-4-.11-1.85-.17-3.7-.17-5.55,0-10,.18-11.37,2.37-13.15a12.64,12.64,0,0,1,2.07-1.3c.27-.14,2.18-1.12,2.84-1.48a67.74,67.74,0,0,0,9.12-5.87c2.06-1.54,2.64-2.14,8-7.93,3.78-4.09,6.21-6.36,9-8.12,3.64-2.33,7.2-3.12,10.9-2.11,4.4,1.2,10.81,2,18.78,2.46,6.9.4,12.9.5,21.95.5a85,85,0,0,1,15.4,1.57c7.77,1.33,9.3,1.54,12.38,1.54a18.94,18.94,0,0,0,10.68-2.95c5.06-3.22,8.11-4.67,11.2-5.2,3.62-.64,4.77-.46,16.55,2.06,17.26,3.7,30.85,1.36,41.06-9.7,5.1-5.53,5.48-8.9,3.48-14.8a18.23,18.23,0,0,1-1.17-4.3c-.29-2.52.5-4.71,2.71-6.93C318.94,15.65,321,9.13,322.51,0h2c-1.56,9.71-3.77,16.65-6.83,19.7-1.79,1.8-2.36,3.39-2.14,5.28a17,17,0,0,0,1.07,3.9c2.22,6.53,1.76,10.66-3.9,16.8C302,57.35,287.67,59.82,269.79,56c-11.42-2.45-12.55-2.62-15.78-2.06-2.77.48-5.62,1.84-10.47,4.92a21,21,0,0,1-11.76,3.27c-3.25,0-4.81-.22-12.73-1.57A83.1,83.1,0,0,0,204,59c-9.1,0-15.11-.1-22.07-.5-8.09-.47-14.62-1.29-19.2-2.54-5.62-1.53-10.17,1.38-17.85,9.66-5.5,5.94-6.08,6.53-8.28,8.18a70.94,70.94,0,0,1-9.38,6c-.68.37-2.58,1.35-2.84,1.49a10.68,10.68,0,0,0-1.75,1.08c-1.47,1.2-1.63,2.4-1.63,11.6,0,1.85.06,3.54.17,5.44,0,.17.2,3.28.24,4,.1,2.75-.13,4.29-1.08,5.71-1.67,2.5-2.27,2.8-19,9.74-5.48,2.29-9,5-11.2,8.24-1.71,2.51-2.47,4.73-3.64,9.7a48.4,48.4,0,0,1-1.94,6.83c-2.18,5.73-6,10.19-13.1,14.18C64.2,162,58,170.16,52,182.54c-4.6,9.64-8.17,19.46-14.67,39.32l-1.58,4.84c-4.75,14.47-7.54,22.48-10.86,30.69C19.65,270.4,11,283,0,295v-3Zm0,78v-.5H1c6.32,0,7.47,5.2,4.6,13.36A60.34,60.34,0,0,1,0,394.16v-1.92a57.42,57.42,0,0,0,4.65-9.72c2.69-7.6,1.71-12-3.65-12-.34,0-.67,0-1,0V323.93q6.95-4,13.71-8.34C27.37,306.13,43.5,278,43.5,262c0-18.1,21.57-72.64,32.23-79.42,12.71-8.09,32.24-28,35.8-37.75,1.93-5.3,5.5-7.27,14.42-9.37,6.15-1.44,8.64-2.42,10.67-4.79,1.5-1.74,2.72-4.79,4.33-10.3.23-.78,1.9-6.68,2.43-8.46,3.62-12.08,7.3-18.49,13.47-20.39,2.5-.76,3-1,9.74-3.7,7.49-3,12-4.43,17.12-4.92a30.61,30.61,0,0,1,19.55,4.67c5.43,3.32,12.19,4.72,20.17,4.56a97.36,97.36,0,0,0,19.83-2.8c1.82-.4,7.38-1.74,8.26-1.94A28.52,28.52,0,0,1,257,86.5c5,0,8.93,0,14.2-.27,7.9-.32,15.56-.92,22.75-1.88a113.46,113.46,0,0,0,21.88-4.82c18.9-6.62,32.64-18.3,33.67-27.59.29-2.56.4-3,2.79-11.11,2.33-7.95,3.21-12.93,2.72-18.23a23.46,23.46,0,0,0-1.48-6.42C352,12.26,350.9,6.78,350.1,0h.9a66.9,66.9,0,0,0,3.47,15.82A24.83,24.83,0,0,1,356,22.51c.5,5.46-.4,10.54-2.77,18.6s-2.47,8.47-2.74,11c-1.09,9.75-15.1,21.68-34.33,28.41a114.3,114.3,0,0,1-22.09,4.87c-7.22,1-14.92,1.57-22.83,1.89-5.3.21-9.27.27-14.25.27a26.89,26.89,0,0,0-5.26.87c-.87.2-6.43,1.53-8.26,1.94a99,99,0,0,1-20,2.82c-8.15.17-15.1-1.27-20.71-4.7a29.65,29.65,0,0,0-18.93-4.54c-5,.48-9.44,1.86-16.84,4.86a98.17,98.17,0,0,1-9.82,3.73c-5.73,1.76-9.28,8-12.81,19.72-.53,1.77-2.2,7.66-2.43,8.46-1.66,5.65-2.91,8.78-4.53,10.67-2.22,2.58-4.84,3.62-12,5.3-7.8,1.83-11.13,3.66-12.9,8.54-3.65,10-23.32,30.06-36.2,38.25C65.94,190,44.5,244.21,44.5,262c0,16.34-16.3,44.78-30.22,54.41C12.14,317.9,6,321.54,0,325.1V370Zm0-173.7V195.2c7.42-3.82,14.55-10.23,21.84-19,3.8-4.56,14.21-18.78,15.79-20.55a46.65,46.65,0,0,1,7.42-6.45c1.08-.8,4.92-3.57,5.49-4,9.36-6.85,14-12,16-19.36.8-3,1.54-6.78,2.46-12.3.23-1.44,2-12.46,2.56-15.79C74.41,81,77.27,71,81.61,65.68,92.46,52.44,101.5,38.14,101.5,33c0-2.54.34-3.35,6-15.71.68-1.49,1.25-2.74,1.77-3.93,2.5-5.75,3.9-10,4.14-13.36h1c-.23,3.48-1.66,7.87-4.23,13.76-.52,1.2-1.09,2.45-1.78,3.95-5.54,12-6,13-6,15.29,0,5.47-9.09,19.84-20.11,33.31-4.2,5.12-7,15.06-9.86,31.64C72,101.29,70.2,112.29,70,113.74c-.92,5.56-1.67,9.38-2.48,12.4-2,7.68-6.82,12.93-16.35,19.91l-5.49,4a47.24,47.24,0,0,0-7.27,6.31c-1.53,1.73-11.94,15.93-15.76,20.53-7.52,9-14.88,15.6-22.61,19.46ZM0,558.14v-4.33A52.21,52.21,0,0,0,1.6,560c2,6,4.6,8.26,8.19,6.59,19-8.85,33.71-24.14,33.71-39.54,0-16.2,6.37-32,17.1-46.3a36.8,36.8,0,0,1,5.53-6c.73-.62,1.45-1.18,2.3-1.8l2-1.43c3.68-2.68,5.32-5.28,7.08-12.59.75-3.07,1.38-5,4.2-13.26l.63-1.88c3.24-9.58,4.56-15,4.17-18.65-.48-4.43-3.8-5.23-11.3-1.64a81.4,81.4,0,0,1-9.15,3.7c-13.89,4.67-27,5.8-42.66,5.42l-1.95-.05-1.45,0a39.85,39.85,0,0,0-15,3A22,22,0,0,0,0,438.38v-1.26a24,24,0,0,1,4.55-2.57,40.68,40.68,0,0,1,16.92-3l2,.05c15.6.38,28.57-.75,42.32-5.37a80.18,80.18,0,0,0,9-3.65c8-3.84,12.16-2.85,12.72,2.43.42,3.89-.92,9.34-4.21,19.08L82.65,446c-2.8,8.2-3.43,10.15-4.16,13.18-1.82,7.52-3.59,10.34-7.47,13.16l-2,1.43c-.84.6-1.54,1.15-2.25,1.75a35.84,35.84,0,0,0-5.37,5.84C50.79,495.46,44.5,511.05,44.5,527s-15,31.45-34.29,40.45c-4.3,2-7.39-.66-9.56-7.18-.23-.68-.44-1.39-.65-2.13ZM0,496v-2.45l1.46,3.27a60.11,60.11,0,0,1,4.26,16.77,164.75,164.75,0,0,1,1,18.5c.2,9.32.5,12.75,1.63,15,1.28,2.6,3.67,2.35,8.29-1.5C33.82,531.32,38.5,522.72,38.5,507c0-7.17,1.1-12.39,3.7-17.68,2.27-4.67,3.65-6.62,13.4-19.62a69.16,69.16,0,0,1,7.6-8.79,46.76,46.76,0,0,1,3.54-3.06c.38-.3.64-.52.89-.74a10.6,10.6,0,0,0,2.63-3.32,36.13,36.13,0,0,0,2.26-5.94l.37-1.2.36-1.15c.29-.91.48-1.55.66-2.16a33.64,33.64,0,0,0,.91-3.66c.38-2.2.12-3.49-.85-4.15-2.35-1.61-9.28-.24-23.8,4.94-9.54,3.4-16.12,4.17-27.85,4.26-7.71.06-10.43.4-13.25,2.12-3.48,2.12-5.84,6.4-7.58,14.26-.5,2.2-1,4.19-1.49,6v-4l.51-2.22c1.8-8.1,4.28-12.6,8-14.9,3-1.85,5.86-2.2,13.77-2.26,11.61-.09,18.1-.84,27.51-4.2,14.93-5.32,22-6.71,24.7-4.83,1.38.94,1.71,2.6,1.28,5.15a32.61,32.61,0,0,1-.94,3.78l-.66,2.17L73.85,447l-.37,1.2a36,36,0,0,1-2.33,6.1,11.41,11.41,0,0,1-2.86,3.61l-.92.77-1,.83c-.9.74-1.65,1.4-2.47,2.18a68.56,68.56,0,0,0-7.48,8.66c-9.7,12.93-11.07,14.87-13.31,19.46C40.57,494.91,39.5,500,39.5,507c0,16-4.82,24.91-22.18,39.38-5,4.2-8.18,4.55-9.83,1.18-1.22-2.5-1.52-5.94-1.73-15.47a165.42,165.42,0,0,0-1-18.4A58.71,58.71,0,0,0,.54,497.2L0,496ZM379.27,0h1l1.5,5.26c3.28,11.56,4.89,19.33,5.26,27.8a60.39,60.39,0,0,1-6.63,31.17c-7.8,15.13-20.47,26.5-36.22,34.1-12.38,6-26.12,9.17-36.22,9.17-6.84,0-17.24,1.38-37.27,4.62l-2.27.37c-24.5,4-31.65,5-37.46,5-3.49,0-4.08-.08-19.54-2.8-3.56-.64-6.32-1.1-9-1.5-20.23-3-31-1.2-32,7.86-.1.85-.18,1.72-.29,2.81l-.27,2.73c-1.1,10.9-2,15.73-4.31,20-2.9,5.34-7.77,7.95-15.63,7.95-10.2,0-12.92.6-15.5,3.17a117.88,117.88,0,0,1-8.16,8.7c-2.75,2.5-14.32,12.55-15.77,13.83q-3.31,2.92-6.54,5.92c-7,6.49-11.81,11.76-14.6,16.15-5.92,9.3-10.48,18-11.69,24.08-1.66,8.3,3.67,9.54,19,1.21q21.83-11.83,44.54-21.9c3.5-1.56,14-6.2,15.68-6.95,5.05-2.25,8.3-3.8,10.78-5.15l2-1.07,2.18-1.18c1.76-.94,3.38-1.76,5-2.55,18.1-8.72,34.48-10.46,50.33-1.2,22.89,13.34,38.28,37,38.28,56.44,0,19.12-.73,25.13-5.18,33.2a45.44,45.44,0,0,1-4.94,7.12c-6.47,7.77-11.81,16.2-12.76,21.27-1.2,6.34,4.69,7,20.17-.05,13.31-6.08,22.4-14.95,28.5-26.32a80.63,80.63,0,0,0,6.1-15.13c.9-3,3.17-11.65,3.41-12.48a29.64,29.64,0,0,1,1.75-4.83c7.47-14.93,21.09-30.5,36.25-37.24,7.61-3.38,13-9.65,19.4-20.79.84-1.48,4.26-7.64,5.14-9.17,3.52-6.1,6.22-9.7,9.37-12,10.15-7.4,28.7-11.1,50.29-11.1,7.52,0,16.54-1.24,27.51-3.58q7.51-1.62,15-3.52c-1.3.33,15.54-4,19.42-4.89,14.15-3.33,41.07-5,64.11-5,17.36,0,27.82-9.23,38.53-38.67,6.62-18.21,6.62-26.37,2.69-34.35L589,64.12A13.4,13.4,0,0,1,587.5,58c0-4,0-4,2.5-24.56.46-3.73.8-6.74,1.12-9.64A202.11,202.11,0,0,0,592.5,3c0-.94,0-1.94,0-3h1c0,1.06,0,2.06,0,3a200.87,200.87,0,0,1-1.39,20.9c-.3,2.91-.66,5.93-1.11,9.66C588.5,54,588.5,54,588.5,58A12.41,12.41,0,0,0,590,63.69c.24.51,1.16,2.35,1.17,2.36,4.06,8.24,4.06,16.68-2.65,35.13C577.63,131,566.84,140.51,549,140.51c-23,0-49.83,1.68-63.89,5-3.86.9-20.69,5.2-19.4,4.88q-7.45,1.91-15,3.53c-11,2.35-20.11,3.6-27.72,3.6-21.4,0-39.76,3.67-49.7,10.9-3,2.19-5.64,5.7-9.1,11.68-.87,1.52-4.29,7.68-5.14,9.17-6.49,11.3-12,17.71-19.86,21.2-14.9,6.63-28.38,22-35.75,36.77a27.71,27.71,0,0,0-1.69,4.67c-.23.8-2.5,9.49-3.4,12.5a81.17,81.17,0,0,1-6.19,15.3c-6.2,11.56-15.44,20.58-29,26.76-16.1,7.36-23,6.55-21.58-1,1-5.29,6.4-13.83,13-21.73a43.82,43.82,0,0,0,4.82-7c4.35-7.88,5.06-13.77,5.06-32.72s-15.19-42.4-37.72-55.55c-15.57-9.08-31.62-7.38-49.45,1.21q-3.63,1.74-7.14,3.71l-1.95,1.07q-5.33,2.81-10.85,5.19c-1.65.74-12.18,5.38-15.69,7q-22.65,10-44.46,21.86c-15.95,8.66-22.37,7.16-20.48-2.29,1.24-6.2,5.83-15,11.82-24.42,2.85-4.48,7.74-9.8,14.77-16.34,2-1.85,4.12-3.79,6.56-5.94,1.46-1.29,13-11.33,15.75-13.82,3.09-2.8,8.6-9.14,8.14-8.67,2.82-2.82,5.75-3.46,16.2-3.46,7.5,0,12-2.43,14.75-7.42,2.2-4.07,3.11-8.84,4.2-19.59l.26-2.73.3-2.81c.56-5.42,4.47-8.5,11.23-9.6,5.44-.88,12.51-.51,21.86.86,2.7.4,5.47.86,9,1.49,15.33,2.7,16,2.8,19.36,2.8,5.73,0,12.9-1,37.3-5l2.27-.36c20.1-3.26,30.52-4.64,37.43-4.64,9.95,0,23.54-3.18,35.78-9.08,15.57-7.5,28.09-18.73,35.78-33.65a59.38,59.38,0,0,0,6.51-30.67c-.37-8.37-2-16.08-5.23-27.57ZM393,0h1c.78,3.9,1.92,8.7,3.51,14.88,3.63,14.05,3.06,27-.75,38.77a61,61,0,0,1-11.35,20.68,137.69,137.69,0,0,1-19.32,18.77c-11.32,9-23.36,15.49-35.95,18.39q-11.19,2.53-22.57,4.07c-3.17.44-6.36.85-10.3,1.32L287.85,118c-11.53,1.41-17.45,2.55-21.64,4.46-9.28,4.21-28.35,6-49.21,6a28.39,28.39,0,0,1-4.3-.35,64,64,0,0,1-9.14-2.29c-7.34-2.21-9.63-2.75-12.63-2.56-3.9.23-6.63,2.29-8.47,6.89s-2.42,7.53-3.34,15c-1.1,9-2.87,12.12-10,14.3a40.46,40.46,0,0,0-6.8,2.66c-.63.33-1.16.64-1.76,1l-1.34.86c-1.9,1.14-3.86,1.49-9.25,1.49-3.2,0-8.83-.55-9.51-.39-1.22.28-.75-.14-7.14,6.24a67.24,67.24,0,0,1-6.32,5.37c-1.52,1.18-7.16,5.43-7.94,6A101.74,101.74,0,0,0,108,192.14c-4.88,5-6.85,9.15-5.56,12.7s4.07,4.42,8.9,2.82a55.68,55.68,0,0,0,7.77-3.48c1.5-.77,7.78-4.13,9.37-5a116.13,116.13,0,0,1,12.31-5.68q5.61-2.22,11-4.84c2-1,10.74-5.16,13-6.22,4.41-2.1,8.1-3.78,11.65-5.29,17.14-7.3,29.32-9.9,37.67-6.65l5.43,2.1c2.3.88,4.17,1.62,6,2.38q6.68,2.68,13.07,6c18.34,9.63,30.35,22.13,34.79,39.87,7,27.85,3.6,45.53-8.08,62.4-4,5.75-3.52,9.2.06,9,4.14-.28,10.21-4.95,15.11-12.52,3.1-4.8,5.1-10.45,8.05-21.53l1.69-6.35c.66-2.47,1.24-4.52,1.83-6.5,4.93-16.56,11-27.28,21.56-34.76,7.15-5.06,23.73-15.5,25.48-16.75,6.74-4.81,10.53-9.44,14.34-18,7.74-17.44,21.09-24.34,44.47-24.34,9.36,0,17.91-1.13,29.53-3.49,2.07-.42,4.14-.84,6.2-1.28,2.4-.5,4.07-.84,5.66-1.13a54.13,54.13,0,0,1,9.61-1.1c4.44,0,9.39-1,31.39-6l2.95-.66c16.34-3.67,25.64-5.35,31.66-5.35,1.54,0,2.4,0,6.4.1,7.8.15,12.27.13,17.33-.2,16.41-1.06,26.73-5.36,29.8-14.56a87.47,87.47,0,0,1,3.55-8.83c-.15.31,2.29-5,2.9-6.38,5.38-12.3,5.57-21.92-1.44-39.44a86.6,86.6,0,0,1-5.26-20.72c-1.61-12-1.38-23.14.1-40.35l.2-2.12h1l-.2,2.2c-1.48,17.15-1.7,28.24-.11,40.14a85.59,85.59,0,0,0,5.2,20.47c7.1,17.78,6.91,27.67,1.43,40.22-.62,1.43-3.06,6.72-2.91,6.4a85.57,85.57,0,0,0-3.52,8.73c-3.23,9.72-13.9,14.15-30.68,15.24-5.1.33-9.58.35-17.42.2-4-.09-4.84-.1-6.37-.1-5.91,0-15.18,1.67-31.44,5.32l-2.95.67c-22.16,5-27.05,6-31.61,6a53.39,53.39,0,0,0-9.43,1.09c-1.58.29-3.25.62-5.64,1.11l-6.2,1.29c-11.68,2.37-20.3,3.51-29.73,3.51-23,0-36,6.71-43.53,23.66-3.9,8.8-7.82,13.58-14.7,18.5-1.78,1.27-18.36,11.7-25.48,16.75C304,218.74,298,229.29,293.1,245.65c-.58,2-1.15,4-1.82,6.47l-1.69,6.35c-3,11.18-5,16.9-8.17,21.81-5.05,7.81-11.37,12.68-15.89,13-4.7.31-5.3-4.23-.94-10.53,11.52-16.64,14.82-34,7.92-61.6-4.35-17.42-16.16-29.72-34.27-39.22-4-2.1-8.2-4-13-6-1.84-.75-3.7-1.49-6-2.38l-5.43-2.08c-8-3.12-20-.58-36.92,6.63-3.52,1.5-7.21,3.19-11.61,5.27l-13,6.22c-4.71,2.22-8.16,3.75-11.11,4.88A116.22,116.22,0,0,0,129,200.11c-1.58.83-7.86,4.18-9.37,5a57,57,0,0,1-7.9,3.54c-5.3,1.75-8.62.85-10.17-3.43-1.46-4,.66-8.5,5.8-13.74A102.23,102.23,0,0,1,118.48,182c.79-.6,6.43-4.85,7.94-6a66.6,66.6,0,0,0,6.23-5.28c6.74-6.74,6.1-6.16,7.61-6.51.87-.2,6.69.36,9.74.36,5.22,0,7-.32,8.74-1.35l1.31-.84c.62-.4,1.18-.72,1.84-1.07a40.34,40.34,0,0,1,7-2.72c6.64-2,8.22-4.84,9.28-13.47.93-7.53,1.5-10.47,3.4-15.24,2-4.95,5-7.26,9.34-7.51,3.17-.2,5.5.35,13,2.6a63.64,63.64,0,0,0,9,2.26,27.7,27.7,0,0,0,4.14.34c20.71,0,39.7-1.82,48.8-6,4.32-2,10.29-3.1,21.93-4.53l9.4-1.12c3.92-.48,7.11-.88,10.27-1.32,8.16-1.14,15.4-2.43,22.49-4.06,12.42-2.86,24.33-9.26,35.55-18.2a137.38,137.38,0,0,0,19.18-18.64,60,60,0,0,0,11.15-20.32c3.76-11.57,4.32-24.36.75-38.23Q394.53,7.61,393,0ZM506.7,0H508c-.5.66-.9,1.18-1.17,1.51-4,5-6.9,7.92-9.82,9.57a10,10,0,0,1-5,1.42,11.83,11.83,0,0,0-6.71,2.21l-2.65,1.71A22.78,22.78,0,0,1,469,20.51c-5.6,0-10-1.26-16.08-4.05l-2.3-1.06-2.18-1a26,26,0,0,0-4.17-1.48,13.4,13.4,0,0,0-3.27-.43c-2.3,0-4.3-.68-11-3.37l-1.56-.62c-5-2-8.1-2.82-10.52-2.66-2.93.2-4.42,2-4.42,6.15,0,20.76-5.21,50.42-12.15,57.35-7.58,7.59-26.55,23.7-34.06,29.06-13.16,9.4-31.17,20.2-44.11,25.06a106.92,106.92,0,0,1-13.32,4c-3.28.78-6.6,1.43-11.25,2.24-.53.1-8.8,1.5-11.5,2-4.86.87-9.3,1.74-14,2.76-20.62,4.48-25.07,5-38.11,5-2.49,0-2.9-.07-14.05-2-2.42-.42-4.31-.73-6.15-1-8.11-1.19-13.83-1.36-17.64-.2-4.54,1.4-5.93,4.65-3.7,10.52,2,5.28,4.84,8.61,8.84,10.74,3.26,1.74,6.75,2.6,13.82,3.71,9.42,1.48,10.94,1.75,15.5,2.92a78.48,78.48,0,0,1,18.62,7.37c8.3,4.58,14.58,11.5,20,20.89,2.73,4.73,9.46,19.33,10.54,21.19,3.4,5.85,6.26,6.63,10.89,2,5-4.94,10.35-8.37,21.13-14.06.47-.25,2.06-1.1,2.12-1.12,8-4.21,11.92-6.51,15.87-9.54,5.11-3.9,8.66-8.1,10.77-13.11,8.52-20.24,20.75-33.31,32.46-33.31l5.5,0c10.53.08,17.35,0,24.9-.31,13.66-.62,23.78-2.09,29.39-4.67a232,232,0,0,1,24.18-9c3.46-1.14,6.29-2,12.7-4.1,7.7-2.45,11.08-3.54,15.17-4.9q5.66-1.89,11.33-3.72c3.67-1.2,6-2,8-2.78a59.85,59.85,0,0,0,6.66-2.94,63.92,63.92,0,0,0,5.86-3.5c3.48-2.33,6.15-3.13,12-4.13l1.15-.2c5.71-1,9-2.3,12.76-5.63,7.82-7,8.58-23.18,3.84-44.52-1.7-7.67-2.1-19.28-1.57-35.47q.3-9.33.82-18.64h1l-.15,3.06c-.32,6.42-.53,11-.68,15.62-.51,16.1-.12,27.65,1.56,35.21,4.82,21.68,4,38.2-4.16,45.48-3.91,3.48-7.37,4.84-13.24,5.87l-1.16.2c-5.76,1-8.32,1.75-11.65,4a65.1,65.1,0,0,1-6,3.56,61,61,0,0,1-6.77,3c-2.09.79-4.39,1.58-8.07,2.79l-11.32,3.71c-4.1,1.37-7.48,2.46-15.18,4.92-6.42,2-9.24,2.95-12.7,4.08a232.65,232.65,0,0,0-24.07,9c-5.76,2.66-16,4.14-29.77,4.77-7.56.33-14.4.39-24.95.31l-5.49,0c-11.19,0-23.16,12.79-31.54,32.7-2.19,5.19-5.84,9.52-11.08,13.52-4,3.07-8,5.39-16,9.62l-2.12,1.12c-10.7,5.65-16,9-20.9,13.9-5.14,5.14-8.75,4.15-12.45-2.22-1.12-1.92-7.85-16.5-10.54-21.2-5.33-9.24-11.48-16-19.6-20.5a77.22,77.22,0,0,0-18.4-7.28c-4.5-1.17-6-1.43-15.4-2.9-7.17-1.12-10.74-2-14.13-3.81-4.22-2.25-7.2-5.77-9.3-11.27-2.43-6.39-.78-10.26,4.34-11.83,4-1.22,9.82-1.05,18.08.17,1.84.27,3.74.58,6.17,1,11,1.9,11.48,2,13.88,2,13,0,17.35-.52,37.9-5,4.71-1,9.16-1.9,14-2.77,2.71-.48,11-1.9,11.5-2,4.64-.81,7.95-1.46,11.2-2.23a106.41,106.41,0,0,0,13.2-4c12.83-4.81,30.79-15.59,43.88-24.94,7.47-5.33,26.4-21.4,33.94-28.94C407.3,62,412.5,32.5,412.5,12c0-4.61,1.86-6.9,5.35-7.15,2.63-.18,5.8.7,11,2.73l1.56.62c6.53,2.62,8.53,3.3,10.63,3.3a14.39,14.39,0,0,1,3.5.46,28.67,28.67,0,0,1,4.34,1.53c1.12.48,2.24,1,3.34,1.52l1.15.54c6,2.73,10.23,4,15.67,4a21.78,21.78,0,0,0,13.1-3.92c.2-.13,2.1-1.38,2.66-1.72A12.78,12.78,0,0,1,492,11.51a9,9,0,0,0,4.47-1.3c2.78-1.56,5.67-4.45,9.54-9.31l.7-.89ZM324.54,600h-2c.49-3,.91-6.2,1.28-9.66.44-4.1.76-8.25,1-12.21a38.18,38.18,0,0,0-.35-7.29c-.47-1.94-.93-4.14-1.36-6.54-2-11.26-2.66-22.9-1.14-33.78a60.82,60.82,0,0,1,5.18-17.95,70.72,70.72,0,0,1,12.6-18.22c3.38-3.6,5.53-5.5,11.83-10.79,4.5-3.78,6.35-5.56,7.52-7.5A5.89,5.89,0,0,0,360,473c0-1.75,0-1.74-.75-9.23-.36-3.7-.57-6.3-.68-9-.5-12.1,1.62-19.6,8.11-21.76,15.9-5.3,25.89-12.1,33.45-25.54C409.6,390.66,425.85,376,436,376c12.36,0,20-2,29.41-8.8,6.76-4.92,9.5-6.6,12.47-7.46,2.22-.64,3.8-.74,9.12-.74,1.86,0,3.53-.83,5.57-2.62,1.08-1,5.11-5.12,5.6-5.6,6-5.85,12-8.78,20.83-8.78,2.45,0,4.54,0,7.32.12,7.51.23,8.87.17,11.27-.7,3-1.1,5.53-3,14.75-11.17,8-7.06,10.72-8.92,22.87-16.47,1.44-.9,2.59-1.63,3.69-2.37a69.11,69.11,0,0,0,9.46-7.5c4.12-3.88,8-7.85,11.64-11.9v3q-4.95,5.37-10.27,10.38a71.26,71.26,0,0,1-9.72,7.7c-1.12.76-2.28,1.5-3.75,2.4-12,7.5-14.71,9.32-22.6,16.28-9.46,8.35-12,10.32-15.39,11.55-2.74,1-4.19,1.06-12,.82-2.76-.08-4.83-.12-7.26-.12-8.27,0-13.75,2.7-19.43,8.22-.44.43-4.52,4.64-5.68,5.66C491.52,360,489.43,361,487,361c-5.1,0-6.6.1-8.56.66-2.67.78-5.29,2.37-11.85,7.15C456.79,376,448.74,378,436,378c-9.22,0-25,14.2-34.13,30.49-7.84,13.94-18.24,21-34.55,26.46-5.31,1.77-7.21,8.51-6.75,19.78.1,2.6.31,5.19.68,8.84.75,7.62.75,7.58.75,9.43a7.84,7.84,0,0,1-1.24,4.09c-1.33,2.2-3.26,4.07-7.94,8-6.25,5.24-8.36,7.12-11.67,10.63a68.71,68.71,0,0,0-12.25,17.71,58.71,58.71,0,0,0-5,17.36c-1.49,10.66-.85,22.09,1.13,33.15.43,2.37.88,4.53,1.33,6.44a27.06,27.06,0,0,1,.6,4.06q-.33,8.07-1.17,16.12c-.37,3.37-.78,6.53-1.25,9.44Zm-13.4,0h-1.05l.12-.28c3.07-7.16,4.29-11.83,4.29-18.72,0-3.57-.07-4.93-.76-15.65-.77-12-1-19.64-.55-28.3A117.59,117.59,0,0,1,319,504.9a97.55,97.55,0,0,1,4.55-11.1A76.44,76.44,0,0,1,334,477.2a58.57,58.57,0,0,1,4.35-4.56c.43-.4,3-2.8,3.67-3.45,5.72-5.6,7.51-11.52,7.51-29.18,0-18.84,2.9-23.77,15.82-28.24,1.09-.37,1.92-.67,2.77-1a51.86,51.86,0,0,0,6.1-2.7,53.19,53.19,0,0,0,14.44-11.42c25.5-27.63,37.15-35.16,56.37-35.16,8.28,0,14.54-1.95,22-6.3,1.78-1,13.82-8.82,18.16-11.27,2.83-1.59,5.66-3,8.63-4.39,7.92-3.6,14-4.45,26.6-4.8,7.53-.2,10.7-.49,14.26-1.58a19.17,19.17,0,0,0,10.93-8.43c2.2-3.41,6.85-7.08,14.66-12.06,1.61-1,3.27-2.05,5.65-3.5,9.53-5.85,11.56-7.13,14.81-9.57,5.34-4,9.3-8.37,13.68-14.77q2.93-4.3,5.62-8.75V278c-2,3.17-3.4,5.38-4.8,7.42a58.94,58.94,0,0,1-13.9,15c-3.29,2.46-5.32,3.75-14.89,9.61-1.89,1.15-3.76,2.32-5.63,3.5-7.7,4.9-12.26,8.52-14.36,11.76a20.13,20.13,0,0,1-11.48,8.85c-3.68,1.12-6.9,1.42-14.53,1.63-12.5.34-18.44,1.18-26.2,4.7q-4.36,2-8.56,4.35c-4.3,2.43-16.34,10.22-18.15,11.27-7.6,4.43-14,6.43-22.5,6.43-18.87,0-30.3,7.4-55.63,34.84A54.49,54.49,0,0,1,374.67,409a52.6,52.6,0,0,1-6.23,2.75c-.86.32-1.7.62-5.37,1.87-5.08,1.76-7.44,3.25-9.28,6.37-2.23,3.78-3.29,9.94-3.29,20.05,0,17.9-1.87,24.07-7.8,29.89-.69.67-3.27,3.06-3.69,3.46a58.53,58.53,0,0,0-4.28,4.49,75.41,75.41,0,0,0-10.28,16.38,95.27,95.27,0,0,0-4.5,11,116.76,116.76,0,0,0-5.76,31.9c-.44,8.6-.22,16.17.55,28.17.69,10.76.76,12.12.76,15.72,0,6.35-1,10.87-4.35,19Zm25.08,0h-1c0-4.73.06-9.39.28-15,.26-6.41-.4-11.79-2.53-24.37l-.31-1.86c-2.12-12.55-2.76-19.35-2-26.47,1-9.25,4.75-16.68,12-22.67,22-18.2,29.81-30.18,29.81-44.61a38.49,38.49,0,0,0-1-8.17c-1-4.79-1.1-5.68-1-7.57a9.55,9.55,0,0,1,3.56-6.72c2.67-2.35,7.05-4.6,13.72-7,9.72-3.5,15.52-9.18,24.3-21.57l1.78-2.5c4.48-6.33,7.1-9.63,10.43-12.78a32.09,32.09,0,0,1,14.54-8.17c13.3-3.32,20.37-5.47,25.34-7.64a49.5,49.5,0,0,0,5.28-2.7c1.1-.65,1.75-1,4.24-2.6,2.7-1.68,5.22-2.08,11.38-2.28,5.44-.18,7.9-.43,11-1.41a21.53,21.53,0,0,0,9.54-6.22c4.87-5.3,10-7.61,17.79-8.9,1.07-.18,1.88-.3,3.86-.58,6.9-1,9.94-1.69,13.48-3.62,4.5-2.45,6.79-4.44,23.46-19.68l3.14-2.85c9.65-8.71,16.12-13.83,21.42-16.48A37.23,37.23,0,0,0,600,307v1.45a37.56,37.56,0,0,1-10.78,8c-5.18,2.59-11.61,7.67-21.2,16.32l-3.12,2.85c-16.8,15.35-19,17.3-23.66,19.82-3.68,2-6.8,2.75-13.82,3.73-2,.28-2.78.4-3.84.57-7.56,1.26-12.52,3.48-17.21,8.6a22.48,22.48,0,0,1-10,6.5c-3.2,1-5.72,1.27-11.25,1.45-6,.2-8.39.57-10.89,2.13q-2.1,1.33-4.25,2.61a51.53,51.53,0,0,1-5.39,2.75c-5,2.2-12.15,4.37-25.5,7.7-9.74,2.44-15.26,7.65-24.4,20.56l-1.77,2.5c-8.9,12.54-14.82,18.34-24.78,21.93-6.57,2.36-10.85,4.57-13.4,6.82a8.51,8.51,0,0,0-3.22,6c-.13,1.76,0,2.63.95,7.3a39,39,0,0,1,1,8.37c0,14.79-7.93,27-30.18,45.39-7,5.8-10.64,13-11.64,22-.78,7-.14,13.73,2,26.2l.32,1.85c2.15,12.65,2.8,18.07,2.54,24.58-.22,5.57-.32,10.2-.28,15ZM95.9,600h-2a153.87,153.87,0,0,0,1.61-16c.2-3.11.27-4.06.39-5.6,1.3-17.54,4-27.14,11.5-33.2,4.65-3.77,7.22-8.92,8.67-16,.51-2.52.7-3.87,1.33-9.17.66-5.5,1.16-8.06,2.24-10.36A7.52,7.52,0,0,1,127,505c14.28,0,38.48,9.12,53.6,20.2a139.62,139.62,0,0,0,31.74,17.11c13,4.71,21.89,4.41,24.75-1.73,1.7-3.64,1.92-4.11,2.65-5.77,2.93-6.67,4.69-12.2,5.25-17.5a28.58,28.58,0,0,0,0-6.2c-.32-2.75-1.42-4.55-4.08-7.35l-1.32-1.37a30.51,30.51,0,0,1-2.41-2.79,30.84,30.84,0,0,1-2.5-4.07l-1.13-2.14c-1.62-3.1-2.68-4.6-4.12-5.56-5.26-3.5-14.8-5.5-28.55-6.83-3-.29-6-.52-9-.71l-2.18-.17c-9.57-.73-15.12-1.56-19.06-3.2C156.57,471.08,136,450.51,136,440c0-5.34,1.74-9.53,5.47-14.13,2-2.44,11.12-11.71,12.79-13.54,4.52-5,10.16-9.54,17.68-14.66,2.8-1.9,14.78-9.6,17.49-11.49a50.47,50.47,0,0,0,6.34-5.43c1.53-1.5,7-7.13,7.12-7.3,7.18-7.3,12.7-11.56,19.74-14.38,3.36-1.34,8.13-2.79,17.45-5.38l11.78-3.28q6.36-1.79,12.67-3.7c20.4-6.24,34-12.08,40.79-18.44,8.74-8.2,11.78-13.84,15.73-26,2-6.22,3.09-9,5.07-12.72,9.54-17.71,28.71-39.37,43.5-45.45C383.77,238.26,389,232.35,389,226c0-2.89,2.73-8.4,6.83-13.73,4.76-6.2,10.65-11.36,16.75-14.18C425.08,192.33,446.08,188,460,188c5.32,0,9.83-1.5,16.42-4.89,9.2-4.71,10.1-5.11,13.58-5.11,10.42,0,32.06-2.55,45.76-6l3.88-1,3.47-.89c2.6-.66,4.33-1.08,5.93-1.43a39.5,39.5,0,0,1,9.58-1.17,31.91,31.91,0,0,1,8.67,1.48c4.56,1.37,13.71-.9,22.87-5.68a68.4,68.4,0,0,0,9.84-6.2v2.4c-11.09,8.14-25.76,13.66-33.29,11.4a30,30,0,0,0-8.13-1.4,38.39,38.39,0,0,0-9.11,1.12q-4.69,1-9.33,2.3l-3.9,1c-13.86,3.46-35.66,6-46.24,6-3,0-3.91.4-12.67,4.89C470.48,188.41,465.72,190,460,190c-13.65,0-34.35,4.26-46.58,9.9-5.78,2.67-11.42,7.62-16,13.58-3.85,5-6.42,10.2-6.42,12.52,0,7.27-5.8,13.82-20.62,19.92-14.27,5.88-33.16,27.21-42.5,44.55-1.9,3.55-2.95,6.28-4.93,12.4-4.05,12.47-7.23,18.39-16.27,26.86-7.08,6.64-20.87,12.57-41.57,18.89q-6.33,1.92-12.7,3.71-5.9,1.67-11.8,3.28c-9.24,2.58-14,4-17.24,5.32-6.73,2.69-12.05,6.8-19.05,13.92-.15.15-5.6,5.8-7.15,7.32a53.05,53.05,0,0,1-6.6,5.65c-2.74,1.92-14.75,9.63-17.5,11.5-7.4,5-12.94,9.52-17.33,14.35-1.72,1.9-10.8,11.11-12.71,13.46-3.47,4.26-5,8-5,12.87,0,9.5,20,29.5,33.38,35.08,3.67,1.53,9.1,2.34,18.45,3.05l4.34.32c3.24.23,5.07.37,6.93.55,14.08,1.37,23.82,3.4,29.45,7.17,1.82,1.2,3,2.91,4.8,6.29l1.11,2.13a24.35,24.35,0,0,0,4.6,6.42c.23.24,1.1,1.16,1.32,1.37,2.93,3.09,4.24,5.23,4.61,8.5a30.71,30.71,0,0,1,0,6.64c-.59,5.55-2.4,11.25-5.41,18.1-.74,1.67-1,2.15-2.66,5.8-3.49,7.47-13.33,7.8-27.25,2.77a141.87,141.87,0,0,1-32.25-17.38C164.62,516,140.82,507,127,507c-5,0-6.4,3-7.64,13.29-.3,3.13-.76,6.24-1.36,9.33-1.53,7.5-4.3,13-9.37,17.16-6.87,5.58-9.5,14.78-10.77,31.8-.11,1.52-.18,2.47-.38,5.57-.46,7-.91,12-1.57,15.85Zm8,0h-1c.29-1.41.58-2.94.9-4.59l1-5.62c2.5-13.3,4.2-19.92,6.68-24a104.38,104.38,0,0,1,8-11c8.21-10.36,10.88-14.55,10.88-18.71l0-1.69c0-1.78,0-2.7,0-3.77.21-5,1.47-8.2,4.64-9.4,3.92-1.5,10.39.44,20.12,6.43,9.56,5.88,17.53,10.7,25.91,15.66,1.31.78,14.27,8.41,17.67,10.45q3.22,1.93,6.42,3.9c13.82,8.5,38.94,5,46.3-7.83,3.6-6.28,4.54-8.52,7.78-17.32.37-1,.77-2.05,1.18-3.07a42.36,42.36,0,0,1,4.06-7.64c9.33-14,14.92-26.1,14.92-36.72,0-3.66.75-6.62,3.36-14.85.52-1.64.83-2.66,1.15-3.73,3.64-12.23,3-19.12-4.29-24a23.07,23.07,0,0,0-10-3.78c-7.2-.93-14.49,1.17-23.91,5.88-1.55.78-6.64,3.44-7.6,3.93q-2.11,1.07-4.14,2.3l-4.4,2.66c-11.62,6.92-20.4,9.18-32.81,6.08-3.32-.84-6.24-1.4-13.1-2.64-13.25-2.39-18.7-3.75-23.33-6.46-6.23-3.67-7.46-9-2.88-16.65A93.35,93.35,0,0,1,172,415.43q4-4,8.32-7.66c-.07.05,6.16-5.3,7.82-6.77a84.43,84.43,0,0,0,6.5-6.33c7.7-8.46,12.78-13.36,20.08-18.57a97.53,97.53,0,0,1,35.18-15.58c37-8.64,51-12.7,58.83-17.93,8.6-5.73,21.3-24.77,36.84-54.81a81.4,81.4,0,0,1,21.13-25.71,147.16,147.16,0,0,1,17.55-12.23c7.42-4.62,9.62-6.14,11.38-8.16a21,21,0,0,0,2.95-4.87c.61-1.3,2.87-6.47,3-6.77a75.62,75.62,0,0,1,3.95-7.73c6.53-11,16-18,31.4-20.8,12.73-2.3,19.85-2.7,29.68-2.3,3.25.13,4.13.16,5.6.14,5.15-.07,9.71-1,16.61-3.8,20.74-8.3,38.75-12,59.19-12,3,0,6,.15,10.48.48l2.09.16c12.45,1,18.08,1,25.34-.63A49.83,49.83,0,0,0,600,178.07v1.15a50.76,50.76,0,0,1-13.88,5.28c-7.38,1.61-13.08,1.61-25.63.65l-2.08-.16c-4.43-.33-7.39-.48-10.41-.48-20.3,0-38.2,3.72-58.81,12-7,2.8-11.7,3.8-17,3.88-1.5,0-2.39,0-5.66-.14-9.76-.4-16.8,0-29.47,2.3-15.06,2.73-24.32,9.58-30.71,20.31a72.06,72.06,0,0,0-3.9,7.63c-.12.28-2.39,5.47-3,6.79a22.15,22.15,0,0,1-3.1,5.1c-1.86,2.13-4.07,3.66-11.6,8.35a147.67,147.67,0,0,0-17.44,12.15,80.59,80.59,0,0,0-20.89,25.4c-15.61,30.2-28.36,49.32-37.16,55.19-8,5.32-22,9.39-59.17,18.07a96.29,96.29,0,0,0-34.82,15.42c-7.22,5.16-12.27,10-19.92,18.43a84.42,84.42,0,0,1-6.57,6.4c-1.67,1.48-7.91,6.83-7.84,6.77-3.27,2.84-5.8,5.16-8.26,7.62a92,92,0,0,0-14.27,18.13c-4.3,7.16-3.22,11.89,2.53,15.26,4.47,2.63,9.88,4,23.24,6.39q6.51,1.06,12.92,2.6c12.11,3,20.64.84,32.06-6l4.4-2.65c1.66-1,3-1.73,4.2-2.35,1-.48,6-3.14,7.6-3.92,9.59-4.8,17-6.94,24.49-6a24.08,24.08,0,0,1,10.4,3.93c7.82,5.21,8.45,12.52,4.7,25.13-.32,1.07-.64,2.1-1.16,3.74-2.57,8.12-3.31,11-3.31,14.55,0,10.88-5.66,23.14-15.08,37.28a41,41,0,0,0-4,7.46c-.37.9-.73,1.82-1.18,3-3.25,8.85-4.21,11.13-7.84,17.47-7.67,13.42-33.43,17-47.7,8.18-2.12-1.31-4.26-2.61-6.4-3.89-3.4-2-16.36-9.67-17.67-10.45-8.38-5-16.36-9.78-25.92-15.66s-15.7-7.7-19.24-6.36c-2.68,1-3.8,3.82-4,8.51,0,1.24,0,2.48,0,3.72l0,1.7c0,4.5-2.69,8.73-11.52,19.87a97.21,97.21,0,0,0-7.55,10.39c-2.39,4-4.08,10.56-6.56,23.72l-1,5.62L104,600Zm10.5,0h-1c0-.34,0-.68,0-1,0-12.39,8.48-33.57,19.16-43.37a26,26,0,0,0,3.67-4.17,35.34,35.34,0,0,0,2.88-4.9c.36-.72,1.75-3.66,2.1-4.36,3.22-6.29,6.84-6.54,17,.39,1.34.9,6.07,4.16,6.4,4.38,2.62,1.8,4.67,3.2,6.7,4.56,5,3.39,9.37,6.2,13.51,8.7,14.33,8.67,25.49,13.27,34.11,13.27,16.86,0,32.71-6,39.6-14.8a43.58,43.58,0,0,0,5.06-9.63c.8-1.92,1.64-4.06,2.67-6.8l2.74-7.33c4.66-12.44,7.76-19.06,11.56-23.27,7.9-8.79,14.87-36,14.87-52.67,0-1.9.17-3.11,1-8.27.37-2.2.58-3.6.74-5.07.63-5.51.21-9.46-1.68-12.39-4.6-7.1-19.7-9.23-38.46-4.78a101,101,0,0,0-18.94,6.3c-5.17,2.37-17.11,9.74-16.5,9.4-6.72,3.64-13,4.15-24.8,1.3-29.55-7.14-30.43-8.62-15.26-26.81,17.44-20.93,47.12-46.18,56.38-46.18,9.92,0,53.84-12,65.78-17.95,9.46-4.73,24.32-21.18,36.82-37.85.71-.95,13.5-21.6,19.2-29.6,9.35-13.13,18.22-22.55,26.95-27.53,7.29-4.17,13.16-10.28,18.8-18.73,1.93-2.9,10.52-17.65,12.73-20.41a12.73,12.73,0,0,1,4.52-3.89c14.07-6.25,24.22-9,39.2-9h29c4.05,0,7.36-.4,22.93-2.5l4.3-.57c9.92-1.3,16.57-1.93,21.77-1.93,1.66,0,3,0,6,0,18.61.19,28.55-.48,44.86-4a37,37,0,0,0,9.11-3.31v1.12a37.92,37.92,0,0,1-8.9,3.17c-16.4,3.56-26.4,4.24-45.08,4.05-3.08,0-4.36,0-6,0-5.15,0-11.76.63-21.64,1.92l-4.3.58c-15.64,2.11-18.94,2.5-23.06,2.5H462c-14.81,0-24.84,2.75-38.8,9a11.82,11.82,0,0,0-4.14,3.6c-2.16,2.68-10.72,17.39-12.68,20.33-5.72,8.57-11.7,14.8-19.13,19-8.57,4.9-17.36,14.23-26.63,27.24-5.68,8-18.47,28.64-19.22,29.63-12.6,16.8-27.52,33.32-37.18,38.15-12.06,6-56.14,18.05-66.22,18.05-8.82,0-38.39,25.15-55.62,45.82-14.6,17.52-14.19,18.21,14.74,25.2,11.6,2.8,17.6,2.3,24.09-1.2-.67.35,11.31-7,16.56-9.44a101.65,101.65,0,0,1,19.11-6.37c19.13-4.53,34.65-2.35,39.54,5.22,2,3.17,2.48,7.32,1.84,13q-.3,2.58-.75,5.13c-.84,5.08-1,6.29-1,8.1,0,16.9-7,44.33-15.13,53.33-3.68,4.09-6.76,10.65-11.37,23-.35.93-2.2,5.94-2.73,7.33-1,2.76-1.88,4.9-2.68,6.84a44.87,44.87,0,0,1-5.2,9.85c-7.1,9.13-23.25,15.19-40.39,15.19-8.86,0-20.15-4.65-34.63-13.42-4.15-2.51-8.5-5.32-13.55-8.72q-3.36-2.26-6.71-4.56l-6.4-4.39c-9.68-6.63-12.61-6.42-15.5-.75-.35.68-1.74,3.62-2.1,4.35a36.83,36.83,0,0,1-3,5,27.88,27.88,0,0,1-3.81,4.33c-10.47,9.6-18.84,30.51-18.84,42.63l0,1ZM84.8,600H83.7a18.85,18.85,0,0,0,1.79-8c0-20,4.83-42,12.15-49.35,5.17-5.18,7.77-8.38,9.9-12.74,2.64-5.41,3.95-12,3.95-20.91,0-6.82,1.14-11.59,3.37-15.07,1.74-2.7,3.6-4.21,8.91-7.52a31.44,31.44,0,0,0,3.9-2.79c4.61-4,6.58-6.2,7.72-9.41,1.43-4,.93-9-1.86-16a69.5,69.5,0,0,0-4-8.07l-.93-1.7q-1.41-2.44-2.64-5c-5.16-10.71-3.77-18.9,7.68-29.78a203.53,203.53,0,0,1,26.81-21.55c4-2.69,16.8-10.8,19.24-12.5a98.67,98.67,0,0,0,7.77-6.3s7.23-6.39,9.47-8.3A139.2,139.2,0,0,1,210,354.85a44.67,44.67,0,0,1,12.87-6.32c12.78-3.41,15.6-4.18,21.77-6,12.55-3.64,22-6.9,28.14-10a45,45,0,0,1,7.47-2.79c8.66-2.66,12-4.1,17-8.1,6.78-5.46,13.07-14.25,19.33-27.87,16-34.77,19.08-39.39,32.15-49.19a57.43,57.43,0,0,1,11.43-6.4l2.33-1c11.93-5.35,16.87-8.93,21.1-17.38,1.88-3.77,2.48-6.29,3.37-12.27.78-5.19,1.48-7.56,3.53-10.25,2.57-3.4,7-6.27,14.36-9a126,126,0,0,1,12.05-3.73c16.33-4.3,25.28-5.36,39.6-5.81,6.9-.22,9.5-.56,12.66-2a20.76,20.76,0,0,0,3.58-2.11,35,35,0,0,1,13.24-5.67c5.71-1.27,10.69-1.54,18.7-1.45l2.35,0c2.82,0,6.8-1,19.7-4.69,10.83-3.08,15.95-4.31,19.3-4.31a22.56,22.56,0,0,1,3.55.41l5,.9c9.82,1.68,17.44,1.89,25.15-.21A36.61,36.61,0,0,0,600,145.37V147a37.2,37.2,0,0,1-20,13.55c-7.88,2.15-15.63,1.94-25.58.23l-5-.9a23.23,23.23,0,0,0-3.39-.39c-3.2,0-8.32,1.22-19.74,4.48C513.9,167.51,510,168.5,507,168.5l-2.36,0c-7.94-.1-12.85.17-18.47,1.42a34.43,34.43,0,0,0-12.88,5.5,21.15,21.15,0,0,1-3.75,2.22c-3.32,1.5-6,1.87-13,2.09-14.25.44-23.13,1.5-39.37,5.77a125,125,0,0,0-11.95,3.7c-7.17,2.7-11.49,5.46-13.93,8.68-1.9,2.52-2.58,4.76-3.33,9.8-.9,6.08-1.53,8.68-3.47,12.56a30.58,30.58,0,0,1-9.66,11.45c-3.12,2.26-5.95,3.73-11.93,6.4l-2.31,1a56.56,56.56,0,0,0-11.25,6.29c-12.9,9.68-15.93,14.17-31.85,48.8-6.31,13.76-12.7,22.68-19.6,28.25-5.08,4.1-8.53,5.57-17.3,8.27a44.54,44.54,0,0,0-7.33,2.73c-6.24,3.12-15.7,6.4-28.3,10.06q-10.86,3.12-21.8,6a43.92,43.92,0,0,0-12.56,6.19,138.52,138.52,0,0,0-13,10.07c-2.24,1.92-9.48,8.3-9.48,8.3a97.73,97.73,0,0,1-7.84,6.37c-2.46,1.72-15.32,9.83-19.26,12.5a203.81,203.81,0,0,0-26.69,21.45c-11.13,10.58-12.43,18.3-7.47,28.63q1.21,2.52,2.62,4.95l.94,1.7a68.81,68.81,0,0,1,4,8.17c2.88,7.2,3.4,12.46,1.89,16.73-1.22,3.43-3.28,5.77-8,9.84a42.6,42.6,0,0,1-5.3,3.67c-3.92,2.45-5.69,3.89-7.31,6.42-2.13,3.3-3.22,7.89-3.22,14.53,0,9-1.34,15.79-4,21.34-2.19,4.49-4.85,7.77-10.1,13-7.07,7.07-11.85,28.9-11.85,48.65a19.54,19.54,0,0,1-1.7,8Zm282.54,0h-1l-1.1-5.8C362.15,578,361.18,568,362.49,557a85.74,85.74,0,0,0,.55-15.3c-.18-4.45-.17-5.68.19-7.63.78-4.3,3.44-8.53,10.39-16.34,9.07-10.2,12.26-15.41,19.8-30.15,1.35-2.64,2.33-4.47,3.38-6.3.9-1.58,1.82-3.06,2.77-4.5,3.14-4.7,7-8.42,16.84-16.81,11.22-9.6,15.5-13.86,18.13-19.13.7-1.4,1.3-2.8,1.93-4.4.51-1.34,1-2.69,1.49-4.05,3.63-9.94,8-13.93,22.9-17.81,5-1.3,20.55-5.13,21.38-5.34,16.19-4.1,25.33-7.36,33.48-12.6,5.86-3.77,5.84-3.76,27.66-16.53l2.6-1.52c10.23-6,17.1-10.2,22.73-14q4.51-3,8.8-6.3c2.13-1.68,4.26-3.37,6.37-5.08A87.79,87.79,0,0,1,600,343v1.12a85.74,85.74,0,0,0-15.49,9.9c.18-.14-4.76,3.84-6.38,5.1q-4.3,3.33-8.85,6.35c-5.65,3.76-12.53,8-22.78,14l-2.6,1.53c-21.8,12.75-21.78,12.74-27.63,16.5-8.27,5.32-17.49,8.61-33.78,12.73-.83.21-16.39,4-21.36,5.33-8,2.1-13.15,4.5-16.45,7.5-2.66,2.42-4,4.86-5.77,9.7l-1.5,4.07c-.58,1.52-1.24,3-2,4.47-2.72,5.45-7,9.75-18.38,19.45-9.73,8.32-13.6,12-16.65,16.6-1,1.45-1.88,2.94-2.74,4.45-1.05,1.81-2,3.63-3.35,6.25-7.58,14.81-10.82,20.08-20,30.36-6.83,7.7-9.4,11.78-10.15,15.86-.34,1.85-.34,3-.17,7.4a88.65,88.65,0,0,1-.55,15.47c-1.3,10.92-.34,20.79,2.73,36.95l1.12,6Zm-76.59,0h-2.1l1.39-4.3a106.64,106.64,0,0,0,2.68-10.4c2.65-12.73,3.27-23.63,3.27-41.3,0-5.71-1.86-9.75-4.13-9.75-2.94,0-7,5.61-10.93,17.08C271.14,579.69,258.3,593,238,593c-22.42,0-29.26-1.35-48.42-10.09a87.72,87.72,0,0,1-9.42-5c-2.95-1.8-12.78-8.57-14.84-9.72-4.2-2.36-7-2.71-9.72-1a11.16,11.16,0,0,0-1.9,1.55,56.26,56.26,0,0,1-4.31,3.86c-1,.83-2,1.64-3.06,2.44l-1,.8C137,582.44,134,587.19,134,597c0,1,0,2-.07,3h-2c0-1,.07-2,.07-3,0-10.52,3.33-15.78,12.09-22.76.66-.54,1.33-1.07,2-1.6.83-.64,1.43-1.13,2-1.61,1.45-1.18,2.84-2.42,4.17-3.74a13.46,13.46,0,0,1,2.24-1.82c3.47-2.2,7-1.75,11.77.93,2.15,1.21,12,8,14.9,9.76a84.94,84.94,0,0,0,9.22,4.93C209.29,589.71,215.85,591,238,591c19.25,0,31.49-12.7,41.06-40.33,4.24-12.25,8.66-18.42,12.81-18.42,3.8,0,6.13,5.06,6.13,11.75,0,17.8-.63,28.8-3.3,41.7a107.14,107.14,0,0,1-2.75,10.6c-.4,1.3-.8,2.53-1.19,3.7ZM141.5,600l.5-.94q3.57-6.48,6.53-13.26c2.73-6.29,5.78-9.64,9.24-10.52,3.74-.95,7.15.74,12.56,5.13s6.07,4.86,7.73,5.1,4.28,1.14,8.86,3c1.3.5,10.78,4.35,13.85,5.55s5.85,2.25,8.49,3.18q4.65,1.65,8.65,2.81h-3.45c-1.76-.56-3.6-1.18-5.54-1.87q-4.28-1.53-8.51-3.19c-3.08-1.2-12.57-5-13.86-5.55-4.5-1.78-7.15-2.68-8.63-2.9-1.94-.27-2.53-.7-8.22-5.3-5.17-4.2-8.36-5.78-11.69-4.94-3.1.78-5.94,3.92-8.56,10q-3.07,7.06-6.82,13.8Zm112.89,0a30.4,30.4,0,0,0,11.27-6.27,37.74,37.74,0,0,0,5.34-6.29c1.05-1.46,2.15-3.1,3.41-5,.84-1.29,1.68-2.59,2.5-3.9l.47-.75.93-1.47q1.54-2.49,3.25-4.86A7.07,7.07,0,0,1,284,569c1-.37,1.49.48,1.49,2v2.11a117.89,117.89,0,0,1-.7,16.33A48.36,48.36,0,0,1,282.42,600h-1.07a46.63,46.63,0,0,0,2.45-10.68,115.84,115.84,0,0,0,.7-16.2V571c0-1-.08-1.12-.15-1.1a7.19,7.19,0,0,0-2,2.1q-1.69,2.36-3.22,4.82l-.92,1.46-.48.75-2.5,3.92c-1.26,1.95-2.38,3.6-3.44,5.08a37.76,37.76,0,0,1-5.5,6.45,30.92,30.92,0,0,1-8.94,5.52ZM70.67,600H69.3c3.37-3.43,5.19-8.33,5.19-15,0-18.6,0-17.35,1-20.77a28.71,28.71,0,0,1,3.27-6.63c.42-.7,4.92-7.8,6.78-10.86,3-5,11-16.5,12.21-18.56,3.48-6.08,4.72-12.06,4.72-24.18,0-7.85,2.5-14.2,8.1-23.44l2.84-4.63c.88-1.44,1.71-2.9,2.49-4.4a20.75,20.75,0,0,0,2.62-8.28c.2-3.78-1.3-7.29-4.9-10.9-5.13-5.12-8.6-5.43-11.2-1.85-2.12,2.92-3.48,7.74-5.06,16.47-.2,1-.82,4.6-.82,4.57a80.76,80.76,0,0,1-2.1,9.6c-1.35,4.42-3.7,7.61-8.36,12.26l-3.26,3.2c-6.38,6.39-9.68,11.51-11.36,19.5l-1.16,5.52c-.87,4.1-1.56,7-2.33,9.94-3.67,13.74-9.65,26-22.59,44.72-7.68,11.14-11,18.87-10.92,23.72h-1c-.12-5.16,3.35-13,11.1-24.28,12.87-18.67,18.8-30.8,22.44-44.42.77-2.88,1.45-5.8,2.32-9.89l1.16-5.51c1.73-8.22,5.13-13.5,11.64-20,.63-.64,2.84-2.8,3.25-3.21,4.57-4.54,6.82-7.62,8.12-11.84a80.9,80.9,0,0,0,2.07-9.48l.81-4.57c1.62-8.9,3-13.8,5.24-16.89,3-4.15,7.2-3.78,12.71,1.74,3.8,3.8,5.42,7.58,5.2,11.66a21.7,21.7,0,0,1-2.73,8.68c-.79,1.52-1.63,3-2.52,4.46l-2.84,4.63c-5.52,9.1-8,15.3-8,22.92,0,12.28-1.28,18.43-4.85,24.68-1.2,2.1-9.21,13.65-12.22,18.58-1.87,3.06-6.37,10.18-6.78,10.86a27.84,27.84,0,0,0-3.17,6.4c-1,3.28-1,2.1-1,20.48,0,6.52-1.7,11.44-4.82,15ZM310.09,0h1.06c-.37.9-.77,1.83-1.2,2.82C306.05,11.89,304.5,18,304.5,28c0,7.64-2.1,11.6-6.64,13.05-3.46,1.1-5.72,1-17.57-.43-11.55-1.36-19.17-1.58-28.16-.14-6.24,2.49-25.91,7-32.13,7-11.15,0-36.76-2.88-54.12-7A22.09,22.09,0,0,0,148.93,43c-4.05,2.33-7.09,5-13.9,12-6.28,6.39-9.53,9.23-13.8,11.5-7.09,3.79-11.22,7.65-13.4,12.27C106,82.57,105.5,86.56,105.5,94c0,4.4-2.65,6.69-9.45,9.74.1,0-3,1.31-3.84,1.71C83.43,109.52,79.5,113.75,79.5,122c0,12.52-4.86,19.22-17.34,28l-4.56,3.14c-1.9,1.3-3.3,2.3-4.67,3.3-.92.68-1.79,1.34-2.62,2-7.16,5.62-11,14.54-15.56,33.28-.63,2.57-3.3,14-4.07,17.14q-2.33,9.73-5.2,19.33c-1.37,4.5-4.5,15.07-5,16.53A28.28,28.28,0,0,1,18.06,251c-.82,1.4-6.85,9.08-12.64,18.27L0,278v-1.9l4.58-7.35q5.92-9.37,12.61-18.23c-.3.5,1.35-2.8,2.38-6.12.45-1.44,3.58-12,4.95-16.53,1.83-6,3.44-12.09,5.19-19.27.76-3.13,3.44-14.56,4.06-17.14,4.62-18.95,8.52-28,15.92-33.83.84-.67,1.72-1.33,2.65-2,1.38-1,2.8-2,4.7-3.32l4.54-3.14c12.25-8.57,16.92-15,16.92-27.14,0-8.74,4.2-13.26,13.29-17.45.88-.41,4-1.77,3.85-1.73,6.46-2.9,8.86-5,8.86-8.82,0-7.6.53-11.7,2.42-15.71,2.29-4.84,6.57-8.85,13.84-12.73,4.15-2.21,7.35-5,14.15-11.93,6.28-6.4,9.36-9.13,13.52-11.53a23,23,0,0,1,17.69-2.59c17.27,4.12,42.8,7,53.88,7,6.1,0,25.73-4.53,31.92-7,9.12-1.46,16.83-1.25,28.49.13s13.9,1.5,17.15.47c4.06-1.3,5.94-4.85,5.94-12.1,0-10.1,1.56-16.3,6.6-28Zm25.12,0h1c.05,5.62.26,11.48.65,19.4.47,9.7.64,14.57.64,21.6,0,9.81-4.68,17.46-13.1,23.16-6.53,4.43-14.94,7.46-24.33,9.33-3.74.54-9.42.56-22.68.23-6.74-.17-9.35-.22-12.39-.22a21.59,21.59,0,0,0-7.63,1.36c-.88.3-4.55,1.74-5.58,2.11-6.55,2.35-13.59,3.53-24.79,3.53-8.1,0-13.58-1.38-22.46-4.9l-3.18-1.25c-12.55-4.87-21.27-5.15-37.18,1.12-11.15,4.39-18.13,9.2-22.28,14.81-3.15,4.26-4.33,7.8-5.94,15.8-1.22,6.09-1.93,8.74-3.5,12.13a14,14,0,0,1-7.07,7.22c-2.33,1.07-4.35,1.5-9.32,2.19-9,1.27-12.77,3.09-15.61,9.58A53,53,0,0,1,86.24,157c-2.4,2.18-13.14,11-15.91,13.42-8.2,7.1-13.85,17.37-18.7,32q-1.76,5.31-3.27,10.7c0,.05-2.26,8-2.88,10.1C37,252,27.6,276.11,19.35,284.36c-2.8,2.8-5.06,5.64-10.4,13A108.51,108.51,0,0,1,0,308.42v-1.55a138.19,138.19,0,0,0,9.48-12,88.18,88.18,0,0,1,9.17-11.24c8.07-8.08,17.44-32.14,25.87-60.8.62-2.1,2.86-10,2.88-10.08,1.21-4.24,2.21-7.53,3.28-10.74,4.9-14.75,10.63-25.16,19-32.4,2.78-2.42,13.5-11.25,15.89-13.4a52.06,52.06,0,0,0,14-19.43,14.89,14.89,0,0,1,7.2-7.86c2.4-1.17,4.64-1.67,9.53-2.36,4.54-.63,6.5-1,8.7-2.06a13,13,0,0,0,6.58-6.73c1.53-3.3,2.23-5.9,3.43-11.9,1.64-8.14,2.85-11.79,6.11-16.2,4.28-5.79,11.41-10.7,22.73-15.16,16.15-6.36,25.13-6.07,37.9-1.11l3.19,1.26c8.77,3.47,14.13,4.82,22.09,4.82,11.09,0,18-1.16,24.46-3.47,1-.36,4.68-1.8,5.58-2.11a22.54,22.54,0,0,1,8-1.42c3.05,0,5.67,0,14.07.26,11.53.29,17.2.27,20.83-.25,9.25-1.85,17.54-4.83,23.94-9.17C332,57.81,336.5,50.47,336.5,41c0-7-.17-11.86-.7-22.7C335.45,11.05,335.25,5.48,335.21,0ZM93.87,0h2a30,30,0,0,1-3,9.47c-2.33,4.38-2.85,5.75-5.26,13a39.27,39.27,0,0,1-1.94,5c-2.24,4.66-5.92,8.8-13.07,14.26-8,6.13-14.27,16.55-20,31.55-2.4,6.23-8.75,25.63-9.64,28-2.69,7.16-6.56,12.7-15.63,23.68l-2.68,3.24c-6,7.34-9.35,12.07-11.72,17.15S5.79,155.33,0,159.58v-2.4c5.14-3.94,9.1-8.3,11.1-12.6,2.46-5.27,5.87-10.1,12-17.56l2.68-3.26c8.94-10.8,12.72-16.22,15.3-23.1.88-2.33,7.24-21.74,9.65-28,5.89-15.31,12.3-26,20.68-32.41,6.92-5.3,10.4-9.2,12.48-13.55a38,38,0,0,0,1.85-4.79c2.45-7.4,3-8.83,5.4-13.34A27.94,27.94,0,0,0,93.87,0Zm9.07,0h1c-1.66,8.3-2.91,12.67-4.54,15.26a58.75,58.75,0,0,0-4.1,8.21c-1.27,3-2.44,6.2-3.5,9.4a29.77,29.77,0,0,1-2.41,5.39q-6.64,6.42-12.81,13.3a52.33,52.33,0,0,0-7.15,9.66c-1,1.9-2.06,6-3.61,13-.64,2.9-3.65,17.15-4.51,21.07-3.63,16.45-6.63,26.69-9.9,32-7.66,12.45-10.64,15.71-37.08,41.1A69.89,69.89,0,0,1,0,179.22v-1.15a69.11,69.11,0,0,0,13.65-10.42c26.4-25.33,29.32-28.55,36.92-40.9,3.2-5.18,6.18-15.37,9.78-31.7.86-3.91,3.87-18.16,4.51-21.06,1.57-7.09,2.7-11.2,3.7-13.2,1.24-2.5,3.76-5.86,7.29-9.89.9-1,1.86-2.1,2.86-3.18,2.4-2.6,5-5.22,7.53-7.76.9-.88,1.73-1.7,3.37-3.4A128.07,128.07,0,0,1,94.39,23.1a60.32,60.32,0,0,1,4.19-8.35C100.1,12.31,101.32,8,102.94,0ZM83.71,0h1.1c-2.09,4.74-6,8.92-11.42,12.3A48.42,48.42,0,0,1,49,19.51c-8.9,0-11.8,7-11.74,21.52,0,1.7,0,3.17.12,6,.1,3.3.12,4.45.12,6a70.8,70.8,0,0,1-2,16.5,67.62,67.62,0,0,1-2.15,7q-3.48,7.93-7,15.86-9.82,22-19.9,43.87A54.1,54.1,0,0,1,0,147v-1.65a54.32,54.32,0,0,0,5.55-9.57Q18.33,108,30.7,80c.53-1.2,1-2.23,2.44-5.9A69.19,69.19,0,0,0,36.5,53c0-1.52,0-2.66-.12-5.95-.08-2.83-.12-4.31-.12-6,0-6.79.53-11.62,2.07-15.34C40.27,21,43.72,18.52,49,18.52a47.46,47.46,0,0,0,23.86-7C77.93,8.28,81.66,4.39,83.7,0ZM366.34,0h1c1.86,10,2.18,12.67,2.32,18.3A123.34,123.34,0,0,1,370,46.14c-1,8.78-3.1,16-6.63,21.15-11.34,16.5-39.8,29.22-66.41,29.22-5.09,0-10.47.28-16.31.83q-12.22,1.22-24.37,3.16c-21.56,3.26-27.66,4-36.32,4-6.92,0-12.2-1.05-21.69-3.9l-2.78-.83c-1.39-.41-2.54-.74-3.65-1-8-2.05-14.22-2-21.7.72a16.29,16.29,0,0,0-9.17,8.18c-1.6,3-2.5,6.06-4,12.83s-2.34,9.52-4,12.64a16.17,16.17,0,0,1-9.85,8.36q-4.83,1.48-9.5,3.42c-6.55,2.8-10.1,5.57-13.8,10.47-1.33,1.75-1,1.3-5.43,7.9a47,47,0,0,1-8.48,9.14c-2,1.76-10.71,8.83-12.88,10.7-7.37,6.35-12.58,12.14-16.63,19.14-4.22,7.3-7.8,18.3-11.28,33.26-.87,3.73-1.72,7.64-2.64,12.14l-1.18,5.8-1.09,5.45c-1.8,9-2.77,13.28-3.77,16.26-6.8,20.44-17.26,42.16-27.13,51.2-5.11,4.7-8.1,7.07-11.1,8.86-.9.54-1.84,1-2.92,1.57-.44.22-9.6,4.4-14.1,6.66L0,344.08V343l.78-.39c4.52-2.26,13.67-6.44,14.1-6.65,1-.48,1.91-1,2.84-1.54,2.94-1.75,5.88-4.09,10.94-8.73,9.71-8.9,20.1-30.51,26.87-50.79,1-2.92,1.94-7.22,3.73-16.13l1.1-5.46q1.74-9,3.82-18c3.5-15.06,7.1-26.14,11.39-33.54,4.11-7.11,9.4-13,16.83-19.4,2.19-1.88,10.88-9,12.88-10.7a45.24,45.24,0,0,0,8.3-8.93c4.43-6.64,4.12-6.18,5.47-8,3.8-5,7.5-7.91,14.21-10.78,2.61-1.12,5.74-2.24,9.59-3.46a15.15,15.15,0,0,0,9.27-7.86c1.59-3,2.42-5.85,4-13,1.41-6.27,2.32-9.33,4-12.48a17.32,17.32,0,0,1,9.7-8.66c7.7-2.83,14.1-2.84,22.3-.75,1.12.29,2.28.61,3.68,1l3.73,1.11c8.47,2.54,13.66,3.58,20.46,3.58,8.59,0,14.67-.75,36.18-4q12.15-2,24.41-3.17c5.88-.54,11.29-.83,16.41-.83,26.3,0,54.45-12.58,65.59-28.78,3.42-5,5.5-12.06,6.46-20.7a123.12,123.12,0,0,0,0-23.9c-.16-1.71-.35-3.42-.57-5.12,0-4.47-.3-6.94-2.16-17ZM18.88,0h1a79,79,0,0,1-5.45,16.2A32.18,32.18,0,0,0,12,31.1c.2,4.33.71,7.7,2.28,16.13,1.09,5.88,1.57,8.77,1.94,12.2,1,8.9.24,16.08-2.8,22.79Q7.17,96.05,0,109.44v-2.12Q6.66,94.75,12.54,81.8c3-6.52,3.67-13.53,2.72-22.27-.36-3.4-.84-6.26-1.93-12.12-1.57-8.47-2.1-11.88-2.29-16.27a33.05,33.05,0,0,1,2.5-15.33A77.51,77.51,0,0,0,18.88,0ZM299.35,0a71,71,0,0,1-4.91,11.24,48.4,48.4,0,0,0-4.86,12l-.4,1.8-.28,1.45a5.31,5.31,0,0,1-.74,2.07c-.74,1-1.93,1.28-5.13,1.25.92,0-9.85-.29-15-.29a175.45,175.45,0,0,0-29.46,2.56c-16.87,2.66-17.73,2.77-23.66,2.52a42.31,42.31,0,0,1-8-1.09c-17.7-4.16-46.18-5.86-54.72-3a34.63,34.63,0,0,0-9.52,5.59q-3.37,2.61-6.54,5.48c-1.4,1.25-9.17,8.5-10.78,9.84-1.45,1.2-8.18,7.42-8.85,8q-2.22,2-4.55,3.9c-5,4-8.9,6.2-11.92,6.2-3.52,0-4.32,0-5.14-.4-1.13-.56-1.5-1.72-1.13-3.57.74-3.63,4.47-10.84,12.84-24.8a109.49,109.49,0,0,0,11.78-26.2,87.54,87.54,0,0,0,3-14.54h1a89.39,89.39,0,0,1-3,14.82,110.61,110.61,0,0,1-11.9,26.44c-8.3,13.84-12,21-12.7,24.48-.3,1.45-.08,2.14.59,2.47s1.35.35,3.48.3c3.92,0,7.69-2.1,12.5-6,1.4-1.13,2.87-2.39,4.51-3.86.66-.59,7.41-6.83,8.88-8s9.34-8.55,10.75-9.82c2.4-2.15,4.55-4,6.6-5.53a35.53,35.53,0,0,1,9.81-5.74c8.76-2.92,37.41-1.22,55.27,3a41.59,41.59,0,0,0,7.81,1.06c5.84.25,6.7.14,23.47-2.51A176.06,176.06,0,0,1,268,28.51c5.2,0,16,.3,15.05.29,2.87,0,3.84-.17,4.3-.83a4.41,4.41,0,0,0,.58-1.7l.28-1.43.4-1.85a50.14,50.14,0,0,1,5-12.22A69.5,69.5,0,0,0,298.29,0Zm-8.59,0C284.85,18,281.21,22,271,22c-4.5,0-10.22.32-28.69,1.5l-1.53.1c-15.6,1-23.47,1.4-28.78,1.4s-13.24-1-28.86-3.28l-1.54-.23C163.18,18.76,157.47,18,153,18a18.26,18.26,0,0,0-11,3.34c-.1.06-1.8,1.17-2.3,1.47A12,12,0,0,1,133,25c-2.8,0-4.11-1.46-4.11-4.22a22.83,22.83,0,0,1,.5-4.1c.16-.82.9-4.4,1.07-5.32A76.81,76.81,0,0,0,131.93,0h2a79.26,79.26,0,0,1-1.5,11.75c-.19.94-.92,4.5-1.07,5.31a21.15,21.15,0,0,0-.47,3.72c0,1.7.46,2.22,2.11,2.22a10.11,10.11,0,0,0,5.7-1.9c.47-.28,2.15-1.37,2.26-1.44A20.21,20.21,0,0,1,153,16c4.62,0,10.3.74,28.9,3.51l1.53.23C198.93,22.05,206.8,23,212,23s13.11-.41,28.65-1.4l1.54-.1C260.73,20.33,266.43,20,271,20c8.95,0,12.15-3.4,17.66-20ZM141.51,0h1.13c-2.06,3.86-2.63,5.1-2.77,6.19s.42,1.64,2.32,2,3.85.35,10.81.35a172.46,172.46,0,0,1,21.35,1.62c4,.5,8,1.1,13.13,1.89,24,3.7,22.5,3.49,26.83,3.49,24,0,51.83-2.24,60.45-6.94,2.88-1.57,5.05-4.49,6.6-8.56h1.07c-1.64,4.47-4,7.69-7.2,9.44-8.83,4.82-36.67,7.06-60.92,7.06-4.41,0-2.84.22-27-3.5-5.1-.8-9.17-1.38-13.1-1.88A170.86,170.86,0,0,0,153,9.51c-7,0-9.1,0-11-.37-2.38-.4-3.38-1.32-3.15-3.07.16-1.22.69-2.41,2.63-6.06Zm76.4,0A53.23,53.23,0,0,0,232,2.51c9.59,0,16.7-.71,22.4-2.5h3c-6.26,2.53-14.18,3.5-25.38,3.5-4.5,0-10.32-1.21-17.53-3.5h3.44ZM70.69,0c-2.87,3.27-6.95,5.39-12,6.53a51.8,51.8,0,0,1-12.92,1c-.58,0-1.17,0-1.75,0-5.37,0-8.86-1.24-10.1-5A8.69,8.69,0,0,1,33.5,0h1a7.59,7.59,0,0,0,.36,2.22C35.91,5.4,39,6.51,44,6.51l1.76,0a50.4,50.4,0,0,0,12.69-1A21.25,21.25,0,0,0,69.3,0h1.39ZM0,207.88c7.31-.16,11.5,3.33,11.5,11.13,0,11.41-5,28.35-11.5,41.5v-2.3c5.93-12.72,10.5-28.47,10.5-39.2,0-7.18-3.7-10.3-10.5-10.13v-1Zm0,7.05a4.49,4.49,0,0,1,2.87,1.31c1.4,1.48,1.6,3.72,1.16,7.58l-.16,1.3A29.94,29.94,0,0,0,3.5,229c0,3.2-1.48,9.52-3.5,15.9v-3.45c1.49-5.13,2.5-9.87,2.5-12.45a30,30,0,0,1,.37-4L3,223.7c.42-3.56.24-5.59-.88-6.77a3.5,3.5,0,0,0-2.15-1Zm0,196v-1.47a21.31,21.31,0,0,0,3-4.7,101.15,101.15,0,0,0,4.56-11.89c7.85-23.55,7.83-26.6.25-30.4A12.23,12.23,0,0,0,0,361.54v-1a13.1,13.1,0,0,1,8.22,1c8.24,4.12,8.26,7.6.25,31.6a98.49,98.49,0,0,1-4.6,12A20.81,20.81,0,0,1,0,410.91ZM33.64,452c1.68,0,3-.23,8.34-1.31l2.38-.47c8.26-1.57,12.72-1.3,14.53,2.33,1.38,2.75-.47,5.86-4.75,9.68-1.63,1.43-3.33,2.79-5.08,4.07-.94.7-4.89,3.59-5.79,4.27a19.78,19.78,0,0,0-3.47,3,19.05,19.05,0,0,0-2.89,5.5c.07-.2-4,13.65-7,22.22-2.7,7.85-5.56,10.72-8.82,8.59-2.11-1.4-3.66-4.24-6.6-11a77.07,77.07,0,0,0-3.4-7.4c-4.55-8.18-3.9-23.9-.05-32.87a9.58,9.58,0,0,1,7-6c2.59-.66,4.86-.75,11.78-.67l3.8,0Zm0,2c-1.13,0-2.09,0-3.82,0-12.07-.13-14.83.57-16.9,5.41-3.63,8.47-4.26,23.55-.05,31.12a75.71,75.71,0,0,1,3.5,7.58c2.72,6.3,4.24,9.08,5.86,10.14s3.5-.8,5.82-7.55q3.68-11.06,7-22.24a21.06,21.06,0,0,1,3.18-6A20.79,20.79,0,0,1,42.06,469c.92-.7,4.87-3.57,5.8-4.27,2-1.5,3.6-2.77,5-4,3.63-3.23,5.09-5.7,4.3-7.28C55.9,451,52,450.81,44.73,452.19l-2.35.47c-5.49,1.11-6.86,1.35-8.74,1.35ZM379.27,600c-3.45-12.26-3.77-14.13-3.77-19,0-3.33-.13-6.27-.43-11.34-.63-10.33-.65-13.5.26-17.07,1.21-4.74,4.21-7.1,9.67-7.1h26c4.08,0,5.19,1.85,5.93,7.11.1.79.13,1,.19,1.32.84,5.35,2.8,7.58,8.88,7.58,3.64,0,5.54.4,6.43,1.37s.76,1.44.36,3.93c-.85,5.26.5,8.85,7.5,13.8,6.32,4.45,11.63,5.36,16.55,3.37,3.8-1.54,6.73-4.16,11.92-10l1.1-1.23,1.09-1.23c.88-1,1.78-1.93,2.7-2.86a35.76,35.76,0,0,1,9.57-6.73c1.52-.76,1.72-.86,5.66-2.63,6.1-2.73,9-4.5,11.74-7.62a28.41,28.41,0,0,1,6.7-6c3.18-1.85,5.46-2.13,13.68-2.13,6,0,10.56-4.32,18-15l2.82-4c1.06-1.5,1.94-2.7,2.79-3.79,7.87-10.12,19.38-10.4,30.74,1,5.54,5.53,10.17,19.43,13.64,38.51A293.3,293.3,0,0,1,593.46,600h-1A293.85,293.85,0,0,0,588,560.35c-3.43-18.87-8-32.65-13.36-38-10.95-10.95-21.76-10.68-29.26-1-.83,1.07-1.7,2.26-2.75,3.75l-2.81,4C532.18,540,527.45,544.51,521,544.51c-8,0-10.21.26-13.17,2a27,27,0,0,0-6.45,5.83c-2.86,3.26-5.87,5.09-12.09,7.88q-2.85,1.21-5.62,2.6a34.78,34.78,0,0,0-9.32,6.54q-2,1.95-3.75,4l-1.1,1.24c-5.28,6-8.29,8.64-12.28,10.25-5.26,2.13-10.92,1.17-17.5-3.48-7.33-5.17-8.82-9.15-7.92-14.77.34-2.12.34-2.6-.1-3.1-.64-.69-2.34-1-5.7-1-6.63,0-9-2.63-9.87-8.42l-.2-1.34c-.67-4.82-1.53-6.24-4.93-6.24H385c-5,0-7.6,2-8.7,6.34-.88,3.43-.85,6.57-.23,16.76.27,3.79.41,7.6.43,11.4,0,4.78.32,6.63,3.81,19ZM393,600a55,55,0,0,1-1.36-14.84c0-.7.1-1.44.18-2.38l.23-2.56c.34-3.81.5-7,.5-11.22,0-4.94,1.46-7.76,4.21-8.42,2.38-.58,5.56.54,9.2,3,6.64,4.52,14,13.07,16.55,19.23,4.77,11.44,14.12,15.69,33.54,15.69,8.6,0,14.32-2.35,20.67-7.88,1.45-1.26,15.06-15,21-20,7.21-6.07,11.77-7.59,20.62-8.32,5.52-.45,8-.9,11.44-2.36,4.58-2,9.36-5.48,14.9-11.29,7.43-7.76,13.25-8.92,17.47-4.3,3.32,3.63,5.46,10.58,6.82,20.24.73,5.17.94,7.74,1.58,17.38.25,3.75.17,5.32-.92,18h-1c1.09-12.7,1.17-14.28.92-18-.64-9.6-.85-12.16-1.57-17.3-1.33-9.47-3.43-16.27-6.56-19.7-3.76-4.11-8.93-3.08-16,4.32-5.65,5.9-10.54,9.5-15.25,11.5-3.58,1.53-6.13,2-11.6,2.44-8.8.72-13.17,2.18-20.2,8.1-5.9,5-19.5,18.7-21,20-6.52,5.68-12.47,8.12-21.32,8.12-19.78,0-29.5-4.42-34.46-16.3-2.49-6-9.71-14.38-16.2-18.79-3.42-2.32-6.36-3.35-8.4-2.86-2.2.53-3.44,2.92-3.44,7.45,0,4.28-.16,7.47-.5,11.31l-.23,2.56c-.09.93-.14,1.65-.19,2.35-.24,4.08.06,8.18,1.39,14.78Zm113.75,0c2.52-3.26,8.93-11.79,10.9-14.3,5.48-7,13-12.38,19.4-13.94,7-1.71,11.5,1.45,11.5,9.24,0,4,0,5.16-.74,19h-1c.7-13.85.74-15,.74-19,0-7.12-3.86-9.83-10.26-8.26-6.11,1.5-13.5,6.77-18.85,13.57-1.86,2.36-7.65,10.07-10.43,13.69Zm-9.86-339a104.17,104.17,0,0,0,11.44,7.75c1.06.64,8.42,4.9,10.35,6.1,11.27,7,15,13.35,12.35,25.33-1.45,6.52-4.53,11.1-9.39,14.44-3.83,2.63-8.07,4.26-16.08,6.56-12,3.45-13.68,4-18.82,6.28a61,61,0,0,0-7.81,4.18c-11.11,7.07-19.1,7.7-28,3.28-3.56-1.77-17.2-11-17.2-11-1.7-1.07-3.44-2.1-5.2-3.07-16-8.83-34.27-24.16-34.52-31.85-.11-3.46,2-6.57,6.28-10.26,1-.9,2.18-1.81,3.68-2.95.72-.55,3.38-2.56,3.94-3,4.47-3.4,7.18-5.79,9.32-8.45,11.12-13.82,26.55-28.68,34.36-32.28,12.06-5.54,19.84-5.77,27.37.12,3.25,2.54,5.65,6.54,8.58,13.35.29.65,2.3,5.45,2.88,6.74,1.62,3.65,2.9,5.8,4.24,6.94.72.6,1.45,1.2,2.2,1.8Zm-3.49-.28c-1.63-1.39-3-3.74-4.77-7.65-.58-1.3-2.6-6.12-2.88-6.76-2.81-6.5-5.08-10.3-8-12.56-6.83-5.35-13.85-5.15-25.3.12-7.45,3.42-22.7,18.12-33.64,31.72-2.27,2.82-5.08,5.3-9.67,8.79l-3.94,3q-1.83,1.39-3.59,2.88c-3.87,3.33-5.67,6-5.58,8.69.21,6.64,18.14,21.72,33.48,30.15,1.76,1,3.5,2,5.3,3.13.12.08,13.61,9.22,17,10.92,8.22,4.1,15.46,3.52,26-3.18a63.07,63.07,0,0,1,8.07-4.31c5.25-2.35,7-2.9,19.08-6.38,7.8-2.24,11.9-3.82,15.5-6.3,4.44-3,7.23-7.18,8.56-13.22,2.44-11-.83-16.6-11.45-23.2-1.9-1.18-9.23-5.42-10.32-6.08a104.58,104.58,0,0,1-11.64-7.9c-.77-.6-1.52-1.21-2.26-1.84ZM87.72,241.61a74.73,74.73,0,0,1,12.14-7c.84-.4,1.73-.78,2.78-1.24l4.37-1.88a165.54,165.54,0,0,0,17.74-9q13.58-7.94,27.87-14.5c4.22-2,21.89-9.84,21.17-9.52,19.17-8.62,28.1-6.93,49.5,8.05,7.91,5.54,13.24,13.25,16.45,22.66,3,8.83,3.76,16.51,3.76,27.75,0,8.32-.66,13-3.68,19-4.18,8.36-12.3,16.14-25.58,23.47C189.79,313,175.41,327,161.41,347.3c-8.83,12.8-47.76,44.21-65.16,54.15C75,413.56,48.89,423.51,31,423.51c-10,0-14.67-4.78-14.76-13.37-.07-6.32,2.06-13.73,6.3-24.32,2.95-7.37,2-12.9-2.16-22.29-3.19-7.17-3.88-9.14-3.88-12.52s1.87-6.9,5.52-11.07c2.61-3,3.5-3.83,11.9-11.5a109.85,109.85,0,0,0,10.7-10.75c9.46-11.36,12.62-19.47,17.9-44.78,3.12-15.05,6.63-20.28,15.12-25.25.8-.47,4-2.25,4.7-2.68q2.76-1.57,5.38-3.38Zm.56.82q-2.66,1.83-5.44,3.43l-4.7,2.67c-8.23,4.82-11.57,9.81-14.65,24.6-5.3,25.45-8.51,33.7-18.1,45.21a111,111,0,0,1-10.8,10.84c-8.36,7.64-9.24,8.48-11.82,11.42-3.5,4-5.27,7.36-5.27,10.42s.68,5.1,3.8,12.12c4.27,9.6,5.24,15.37,2.16,23.07-4.18,10.47-6.29,17.78-6.22,23.93.08,8.06,4.26,12.38,13.76,12.38,17.67,0,43.68-9.9,64.75-21.93,17.28-9.88,56.1-41.2,64.84-53.85,14.08-20.42,28.57-34.59,53.17-48.16,13.12-7.23,21.09-14.87,25.17-23,2.92-5.86,3.57-10.35,3.57-18.53,0-11.13-.74-18.73-3.7-27.43-3.15-9.22-8.36-16.75-16.09-22.16-21.13-14.8-29.7-16.42-48.5-8,.7-.32-17,7.56-21.17,9.5-1.7.8-3.3,1.55-4.86,2.3q-11.7,5.61-22.93,12.17a164.78,164.78,0,0,1-17.85,9L103,234.34c-1,.45-1.92.84-2.76,1.23A74.91,74.91,0,0,0,88.28,242.43Zm-7.6,12.2c7.7-6.25,12.3-8.17,23.68-11.27,6.12-1.67,9.12-3,12.31-5.72,3.8-3.3,7.47-4.52,15.86-6.1,2.75-.52,3.67-.7,5.06-1,5.48-1.24,9.48-2.93,13.1-5.89,10.42-8.53,25.4-14.11,36.31-14.11,5.33,0,16.77,7.58,25.74,17.16,10.73,11.46,16,23.27,12.73,32.5s-11.39,18.57-23,27.86a158.13,158.13,0,0,1-25.22,16.43c-3.72,1.86-6.59,4.88-9.77,10-.69,1.1-11.1,20.25-16,27.83-5.62,8.65-15.4,17.36-30.23,28q-4.56,3.25-9.2,6.42c-.13.09-6.81,4.65-8.6,5.89a124.88,124.88,0,0,0-13,9.83c-11.64,10.67-37.14,15.54-43.7,9-2-2-2.2-4.06-2-10.52.37-9.42-.5-14.5-4.95-20.51a34,34,0,0,0-7-6.92c-3.93-2.95-6.07-6.11-6.56-9.49-1-6.61,3.87-13.06,14.17-21.69,1.58-1.32,6.67-5.44,7.09-5.78a47.27,47.27,0,0,0,5.23-4.77c4.1-4.63,5.85-9.55,7.8-20.07.27-1.46.54-2.91.8-4.37.33-1.87.6-3.3.88-4.73.74-3.78,1.5-7.18,2.4-10.63,1-3.78,1.38-5.5,2.36-10.37a20.15,20.15,0,0,1,1.56-5.47c1.22-2.45,1.27-2.5,12.25-11.42Zm.64.78c-10.77,8.74-10.88,8.84-12,11.08a19.91,19.91,0,0,0-1.47,5.22c-1,4.89-1.36,6.63-2.37,10.44-.9,3.43-1.65,6.8-2.39,10.56q-.68,3.46-1.29,7l-.39,2.15c-2,10.68-3.77,15.74-8,20.54A48.36,48.36,0,0,1,48,327.23c-.42.34-5.5,4.47-7.07,5.78-10,8.4-14.72,14.65-13.83,20.78.45,3.1,2.44,6,6.17,8.83a35,35,0,0,1,7.24,7.12c4.63,6.24,5.52,11.52,5.15,21.15-.25,6.14,0,8.1,1.66,9.78,6.1,6.1,31,1.33,42.31-9a127.67,127.67,0,0,1,13.16-9.92l8.6-5.89c3.63-2.48,6.45-4.44,9.19-6.4,14.73-10.54,24.44-19.18,30-27.7,4.9-7.54,15.31-26.68,16-27.8,3.27-5.26,6.26-8.41,10.18-10.37a157.06,157.06,0,0,0,25-16.32c11.52-9.18,19.61-18.53,22.72-27.4s-2-20.27-12.52-31.49c-8.8-9.4-20-16.84-25-16.84-10.67,0-25.43,5.5-35.68,13.89-3.76,3.07-7.9,4.81-13.5,6.09-1.41.32-2.35.5-5.11,1-8.21,1.55-11.76,2.73-15.38,5.88-3.34,2.9-6.45,4.22-12.7,5.92-11.26,3.07-15.75,4.94-23.31,11.09ZM212,251.86c0,7.56-.6,10.92-2.6,14.3-1.1,1.84-7.66,10-8.6,11.3-6,7.94-9.33,10.28-17.26,13.76a24.39,24.39,0,0,0-3,1.5,19.24,19.24,0,0,1-2,1c-.71.33-4.46,1.9-5.52,2.39-6.05,2.78-9,5.8-9,10.73,0,11-18.95,36.12-34.51,44.87-8.18,4.6-21.3,9.36-32.78,11.86-13.33,2.9-22.49,2.48-24.62-2.32-1.32-3-4.4-4.26-12-5.81l-.6-.12c-4.84-1-6.94-1.55-9-2.64C47.56,351.2,46,349,46,345.86c0-2.74,1.08-5.77,3.25-9.67.85-1.53,1.82-3.13,3.23-5.35-.16.25,2.83-4.4,3.67-5.76,6.69-10.7,9.85-18.5,9.85-27.22,0-18.41,11.22-33.37,27.5-42.86,5.22-3.05,9.23-3.31,15.2-2.12,5,1,6,.9,7.43-1.52,4.5-7.85,7-9.5,15.87-9.5a18.44,18.44,0,0,0,10.47-3.16c1.56-1,8.67-6.17,11-7.68,9.2-6,11.34-7,25.2-12,7-2.48,15.18,1.28,22.33,9.12,6.55,7.19,11,16.61,11,23.67Zm-2,0c0-6.5-4.25-15.48-10.49-22.32-6.67-7.32-14.16-10.74-20.17-8.59-13.73,4.9-15.73,5.85-24.8,11.75-2.24,1.46-9.37,6.68-11,7.7A20.47,20.47,0,0,1,132,243.86c-8.08,0-10,1.23-14.13,8.5a5.56,5.56,0,0,1-4.35,3.09c-1.3.14-1.9.05-5.22-.61-5.53-1.1-9.07-.88-13.8,1.88C78.78,265.89,68,280.27,68,297.86c0,9.2-3.28,17.29-10.15,28.28l-3.68,5.77c-1.39,2.19-2.35,3.77-3.17,5.25-2,3.63-3,6.38-3,8.7,0,4.19,2.87,5.67,11.9,7.52l.61.12c8.27,1.7,11.7,3.13,13.4,6.95,3.17,7.14,36,0,54.6-10.46,15-8.43,33.49-33,33.49-43.13,0-5.9,3.47-9.48,10.16-12.55,1.1-.5,4.85-2.08,5.52-2.38a18.12,18.12,0,0,0,1.8-.93,28.78,28.78,0,0,1,3.25-1.62c7.65-3.35,10.75-5.5,16.47-13.12,1-1.36,7.47-9.42,8.47-11.11,1.79-3,2.33-6.06,2.33-13.3Zm-37.18-22.4c.15-.1,2.4-1.51,3-1.84a11.66,11.66,0,0,1,2.43-1.17c2.57-.83,5.06-.1,11,3.12,14.86,8,19.43,22.87,9.18,38.71-4,6.24-9.37,9-18.72,11.11-.85.2-1.2.27-3.13.68-6,1.29-8.78,2.08-11.6,3.65a15.48,15.48,0,0,0-7.5,9.44c-7.87,24.93-19.72,43.34-36.28,50.31s-21.13,8.53-28,8.89a35.53,35.53,0,0,1-15.4-2.89,43.57,43.57,0,0,1-5.64-2.6c-4-2.33-5.14-4.74-4.5-9.31.3-2.13,3.77-15.53,4.84-20.65.63-3.05,1.19-6.14,1.75-9.69q.72-4.44,1.35-8.9c1.42-9.41,2.5-14.27,4.49-18.65a19.91,19.91,0,0,1,11.72-11.13c6.59-2.47,10.54-3.1,18-3.53,4.75-.27,6.68-.64,9-2.05a13.35,13.35,0,0,0,1.82-1.33,30.06,30.06,0,0,0,3.37-3.4c.59-.69,2.38-2.9,2.63-3.19,3.36-4,6.3-5.53,12.33-5.53,3.94,0,5.9-.92,8.18-3.36-.17.18,2.75-3.14,3.85-4.22a30.85,30.85,0,0,1,6.79-5,48.59,48.59,0,0,1,5-2.38,64.55,64.55,0,0,0,10-5.1ZM158.3,237.8a30,30,0,0,0-6.57,4.84q-2,2.06-3.82,4.2c-2.46,2.63-4.68,3.67-8.91,3.67-5.72,0-8.39,1.39-11.57,5.17-.23.28-2,2.5-2.63,3.2a31.08,31.08,0,0,1-3.47,3.51,15.46,15.46,0,0,1-2,1.43c-2.5,1.51-4.55,1.9-9.47,2.19-7.39.42-11.25,1-17.72,3.47A18.87,18.87,0,0,0,81,280.08c-1.93,4.27-3,9.07-4.41,18.39L76,302.81l-.7,4.57c-.57,3.56-1.12,6.67-1.76,9.73-1.08,5.18-4.54,18.53-4.83,20.59-.59,4.17.35,6.18,4,8.3a45.4,45.4,0,0,0,5.52,2.55,34.45,34.45,0,0,0,15,2.8c6.69-.34,11.32-1.93,27.65-8.8s27.92-25,35.71-49.7a16.47,16.47,0,0,1,8-10c2.93-1.63,5.74-2.45,11.87-3.76,1.92-.4,2.28-.49,3.12-.68,9.12-2.06,14.24-4.7,18.1-10.67,9.92-15.34,5.55-29.55-8.82-37.29-5.75-3.1-8-3.76-10.25-3a10.29,10.29,0,0,0-2.23,1.08c-.55.32-2.77,1.72-2.93,1.82a66.46,66.46,0,0,1-10.16,5.17,49.84,49.84,0,0,0-4.89,2.33Zm-42.39,32.72c16.15-2.87,26.36-1,32.47,6.16,5.08,5.93,1.13,21.42-5.93,35.55-4.79,9.58-10.6,16.21-23.16,25.19-14.15,10.1-35.5,12.2-40.71,3.85-1.86-3-2.1-8.14-1.06-15.73.78-5.68,1.86-10.71,4.73-23l.12-.51c1.59-6.8,2.37-10.31,3.14-14.14,1.45-7.25,3.74-11.47,7.26-13.74,2.81-1.8,5.53-2.28,12.33-2.62a77.77,77.77,0,0,0,10.81-1Zm.18,1a76.43,76.43,0,0,1-10.94,1.05c-6.62.33-9.23.78-11.84,2.46-3.25,2.1-5.42,6.09-6.82,13.1-.77,3.84-1.56,7.35-3.15,14.17l-.12.5c-2.86,12.24-3.93,17.26-4.7,22.9-1,7.36-.79,12.36.9,15.07,4.82,7.7,25.54,5.67,39.29-4.15,12.43-8.88,18.13-15.39,22.84-24.81,6.86-13.72,10.75-29,6.07-34.45C141.78,270.53,131.92,268.69,116.09,271.5Zm15.91,5c7.12,0,10.66,3.08,11.25,8.7.42,4-.43,8.14-2.77,15.94-2.56,8.52-18.36,25.38-27.2,31.28-7,4.67-20,5.67-26.57,1-4-2.85-3.53-12.08,0-26.46.68-2.75,1.47-5.65,2.37-8.76q1.45-5.08,3.05-10.14l.37-1.2c1.48-4.8,5.1-7.75,10.73-9.27,4.4-1.2,9.54-1.5,17.48-1.33l3.89.1C128.49,276.47,130,276.51,132,276.51Zm0,1c-2,0-3.53,0-7.41-.15l-3.88-.1c-7.85-.17-12.92.13-17.2,1.3-5.32,1.43-8.67,4.16-10,8.6-.53,1.74-1.06,3.47-1.6,5.21-.68,2.2-1.27,4.17-1.82,6.1-.9,3.1-1.68,6-2.36,8.73-3.43,13.88-3.87,22.93-.4,25.4,6.17,4.42,18.73,3.45,25.42-1,8.66-5.78,24.33-22.49,26.8-30.73,2.3-7.67,3.14-11.71,2.73-15.56-.53-5.1-3.64-7.8-10.25-7.8Zm-17.79,7a31.54,31.54,0,0,1,8.57,1.4c5.42,1.78,8.72,5,8.72,10.1,0,9.59-9.51,17.2-22.34,21.47-9.82,3.28-13.62-1.79-11.66-16.54.84-6.28,3.82-10.67,8.24-13.46A20.37,20.37,0,0,1,114.21,284.51Zm-.6,1.08a19.37,19.37,0,0,0-7.34,2.73c-4.18,2.64-7,6.78-7.77,12.76-1.89,14.11,1.36,18.45,10.34,15.46C121.3,312.38,130.5,305,130.5,296c0-4.56-3-7.5-8-9.15a28.16,28.16,0,0,0-8.2-1.35A5,5,0,0,0,113.61,285.59Zm80.87-23.45c-2.72,9.8-14.93,9.86-26.72,3.3-10.17-5.64-13.8-18-5-22.87q2.3-1.26,4.48-2.7l2-1.3c1.27-.83,2.58-1.59,3.92-2.3,4.73-2.43,8.82-2.8,14-.72,9.16,3.66,11,13.33,7.3,26.6Zm-20.83-25q-2,1-3.84,2.25l-2,1.3c-.84.53-1.5.95-2.16,1.35-.82.5-1.6,1-2.38,1.39-7.94,4.4-4.59,15.8,5,21.12,11.31,6.29,22.8,6.23,25.28-2.7,3.57-12.83,1.85-22-6.7-25.4a14.33,14.33,0,0,0-13.17.7Zm17.85,12.15c0,5.7-2.44,9-6.64,10-3.3.76-7.56,0-11.08-1.81l-1.89-.94c-.67-.34-1.18-.62-1.63-.88-4.07-2.38-4.13-5,.34-10.93,6.8-9.06,20.9-7.16,20.9,4.6Zm-1,0c0-5.3-2.87-8.55-7.32-9.16a13.07,13.07,0,0,0-11.78,5.16c-4.15,5.54-4.1,7.44-.64,9.47.44.25.93.51,1.59.85l1.87.93c3.34,1.67,7.36,2.44,10.42,1.74,3.73-.86,5.86-3.74,5.86-9Zm196.5,281c0-12.8,2.44-16.74,18.48-29.77a56.2,56.2,0,0,1,7.61-5.2,79.27,79.27,0,0,1,8.5-4.18c1.24-.53,2.48-1.05,4.1-1.7l3.92-1.57c9.4-3.83,13.74-6.7,16.62-12.05a75.39,75.39,0,0,0,3.23-6.83c.53-1.27,1-2.55,1.54-3.84l.3-.74.56-1.44c3.2-8,6.05-12.08,12.7-16.5a35.3,35.3,0,0,0,5-4,46.36,46.36,0,0,0,3.88-4.29c.27-.34,2.55-3.2,3.2-4,3.48-4.15,6.51-5.9,11.51-5.9,3.08,0,5.62-.63,9.57-2.1,5.42-2,6.53-2.34,9-2.2a10.77,10.77,0,0,1,7.18,3.59c1.3,1.3,5.55,5.83,6.52,6.78,5.06,5,9.44,6.92,17.77,6.92q6,0,12.08.45c15.93.87,21.94.57,25.28-2.21,6.91-5.77,11.64-2.73,11.64,7.76,0,10.73-8.6,20-19,20-4.8,0-8.32,1.43-9.34,3.67-1.12,2.48.68,6.15,6,10.57,13.6,11.33,11.24,20.76-7.64,20.76a21.91,21.91,0,0,0-14.6,5.24c-3.28,2.71-5.8,5.86-9.85,11.82l-1.52,2.25a60.23,60.23,0,0,1-7.32,9.4c-6.21,6.21-9.3,7.64-13.05,6.89l-1-.23a10.87,10.87,0,0,0-2.66-.37c-1.6,0-2.41.67-8.18,6.22-4.85,4.67-8.07,6.78-11.82,6.78-1.33,0-3.46,1.15-6.45,3.45-1.27,1-2.68,2.14-4.5,3.7l-4.92,4.29c-1.49,1.3-3,2.57-4.54,3.82-9.33,7.56-15.63,10.2-20.21,6.52a11.68,11.68,0,0,1-4.63-7.26c-.37-2-.26-3.63.29-7.3.87-5.85.65-8.42-1.83-11.6-2.32-3-3-3.22-3.77-2.39-.25.26-1.35,1.63-1.61,1.94-2.21,2.5-4.85,3.57-9,2.82-4.6-.84-5.57-4.11-4.72-10.09l.24-1.56c.6-3.66.68-4.93.25-5.8s-1.9-.94-5.23.4l-.74.29c-13.78,5.54-15.26,6.09-19.43,6.67-6,.84-9.31-1.6-9.31-7.9Zm2,0c0,5,2.14,6.6,7,5.92,3.91-.55,5.43-1.1,18.95-6.55l.75-.3c4.17-1.66,6.7-1.54,7.76.58.71,1.43.62,2.76-.06,7l-.24,1.53c-.72,5-.06,7.27,3.09,7.84,3.43.62,5.38-.17,7.15-2.18.2-.23,1.34-1.66,1.68-2,1.9-2,3.82-1.25,6.78,2.55s3.17,6.77,2.22,13.12c-1,6.75-.52,9.4,3.62,12.71,3.49,2.8,9.1.45,17.7-6.51,1.35-1.1,2.75-2.28,4.49-3.78l4.93-4.3c1.84-1.58,3.27-2.76,4.58-3.77,3.34-2.56,5.74-3.86,7.67-3.86,3,0,5.95-1.9,10.43-6.22L500,539.7c.94-.89,1.67-1.56,2.37-2.13,1.81-1.49,3.3-2.26,4.74-2.26a12.9,12.9,0,0,1,3.1.42c.7.16.71.17,1,.21,3,.6,5.45-.55,11.23-6.33a59.4,59.4,0,0,0,7.09-9.11l1.52-2.25c4.15-6.11,6.76-9.37,10.22-12.24a23.9,23.9,0,0,1,15.88-5.7c16.87,0,18.62-7,6.36-17.23-5.9-4.92-8.12-9.41-6.52-12.93,1.42-3.12,5.67-4.84,11.16-4.84,9.25,0,17-8.34,17-18,0-8.94-2.88-10.79-8.36-6.23-3.94,3.28-10,3.59-26.67,2.68l-1-.06c-5.09-.27-8-.39-10.95-.39-8.88,0-13.76-2.14-19.18-7.5-1-1-5.26-5.53-6.53-6.79a8.81,8.81,0,0,0-5.87-3c-2-.12-3.06.18-8.15,2.07-4.15,1.55-6.9,2.22-10.27,2.22-4.33,0-6.84,1.46-10,5.2-.63.74-2.89,3.6-3.18,3.95a47.4,47.4,0,0,1-4,4.46,37.31,37.31,0,0,1-5.24,4.23c-6.26,4.17-8.9,7.91-11.95,15.58l-.57,1.43-.28.74-1.56,3.88q-1.49,3.59-3.32,7c-3.16,5.88-7.82,9-17.63,13l-3.92,1.58c-1.6.64-2.84,1.15-4.05,1.67a79.76,79.76,0,0,0-8.3,4.08,54.81,54.81,0,0,0-7.35,5C391.12,514.79,389,518.22,389,530.32Zm133.22-79.76a19.84,19.84,0,0,0,10.68,1.7,60.42,60.42,0,0,0,8.8-1.49c5.36-1.19,6.33-1.38,8.33-1.54,2.78-.23,4.82.17,6.29,1.4s2,2.72,1.26,4.22-1.05,1.74-5.05,5.07c-3.53,2.93-5,4.83-5,7.09,0,7.3,1.29,10,7.83,15.62,3.86,3.3,5.93,6.84,5.28,9.62-.75,3.25-5,5-12.61,5-7.18,0-12.7,4.61-20,14.68-.5.7-4,5.57-4.94,6.87a38.7,38.7,0,0,1-4.72,5.5,11.68,11.68,0,0,1-3.1,2.15c-2.85,1.26-5.05,1.57-9.83,1.74-7.66.27-10.87,1.45-15,7.1a49.58,49.58,0,0,1-4.68,5.6,42.85,42.85,0,0,1-8.65,6.69c-.15.08-10.69,6.19-14.8,8.83-3.76,2.42-6.45,2-8.22-.77-1.28-2-1.9-4.54-2.87-10.35-.84-5.08-1.27-7.08-2.06-8.93-1-2.3-2.21-3.24-4-2.88-6.2,1.24-9,1.39-11,.2-2.37-1.4-3.13-4.62-2.62-10.73.16-2-1-2.87-3.76-3-2.24-.13-4.9.2-9.94,1.12l-.69.12c-8,1.45-10.72,1.72-12.72.73-2.91-1.43-1.6-5.27,4.23-12.21,5.48-6.53,10.6-10.81,15.76-13.53,3.74-2,5.94-2.65,12.16-4.1,7.29-1.72,10.4-3.51,14-9.31,3-4.75,10.74-18.62,12.14-20.84,3.59-5.67,6.8-9.1,11-11.34a72.7,72.7,0,0,0,9.17-6.07l1.38-1c7.85-5.72,12.3-8,17.68-8,4.22,0,6.49,1.36,9.13,4.77.34.43,1.67,2.22,2,2.67a29.72,29.72,0,0,0,2.45,2.83,24.32,24.32,0,0,0,6.64,4.78Zm-.44.9a25.56,25.56,0,0,1-6.92-5,32.92,32.92,0,0,1-2.51-2.93c-.35-.46-1.68-2.25-2-2.67-2.47-3.18-4.46-4.38-8.34-4.38-5.09,0-9.4,2.2-17.09,7.78l-1.38,1a71.38,71.38,0,0,1-9.3,6.15c-4.06,2.15-7.16,5.45-10.66,11-1.39,2.19-9.16,16.05-12.15,20.82-3.79,6.07-7.13,8-14.66,9.75-6.13,1.45-8.27,2.1-11.92,4-5,2.66-10,6.86-15.46,13.3S402.85,520,404.83,521c1.7.84,4.48.57,12.1-.81l.7-.13c5.12-.93,7.82-1.27,10.17-1.12,3.21.2,4.92,1.48,4.7,4.11-.48,5.76.2,8.64,2.13,9.78,1.73,1,4.34.88,10.27-.31,2.35-.47,4,.78,5.14,3.47.83,1.95,1.27,4,2.07,8.8l.06.36c.94,5.65,1.55,8.11,2.72,10,1.46,2.3,3.52,2.6,6.84.46,4.14-2.66,14.69-8.77,14.81-8.85a42,42,0,0,0,8.46-6.54,47.16,47.16,0,0,0,4.6-5.48c4.32-6,7.81-7.23,15.74-7.5,4.66-.17,6.76-.47,9.46-1.67a11,11,0,0,0,2.84-2,37.3,37.3,0,0,0,4.6-5.36c1-1.3,4.4-6.16,4.93-6.87,7.5-10.31,13.22-15.09,20.83-15.09,7.24,0,11-1.6,11.64-4.24.54-2.32-1.36-5.55-5-8.64-6.75-5.79-8.17-8.79-8.17-16.38,0-2.67,1.64-4.74,5.39-7.86s4.23-3.56,4.78-4.73.25-2-1-3c-2.23-1.85-4.72-1.65-13.76.36a61.6,61.6,0,0,1-8.94,1.5,20.72,20.72,0,0,1-11.2-1.8Zm-28-3.9c5.65-2.82,9-2.2,12.9,1.37.56.5,2.6,2.47,3,2.87,4.2,3.89,8.07,5.71,14.3,5.71,11.37,0,14,1.41,16.1,8.09.26.83,1.35,4.6,1.66,5.62.8,2.63,1.64,5,2.7,7.6,2.13,5.17,2.64,8.32,1.72,10.24-.77,1.61-2.1,2.18-5.37,2.79a29.38,29.38,0,0,0-3.85.85,10.75,10.75,0,0,0-4.6,2.66c-1,1-2,2.13-3.31,3.66-.6.71-2.91,3.5-3.46,4.14-7.2,8.54-12.43,12.35-19.59,12.35-3.76,0-6.95,1.28-10.59,4-1.84,1.37-11.62,10.31-15.22,13.06a73.4,73.4,0,0,1-8.95,5.88c-4.58,2.54-7.35,3.22-9,2.23-1.32-.8-1.65-2.07-1.94-5.5,0-.6-.1-1.21-.16-1.81-.54-4.73-2.24-6.86-7.16-6.86-7.11,0-8.85-1.23-9.73-5.41-1-4.61-2.1-6.7-6.55-9.67-4-2.65-4.31-5.42-1.52-8.22,2-2,4.63-3.5,11.35-6.87s9.2-4.8,11.1-6.68a39.26,39.26,0,0,0,5.3-6.48,50.44,50.44,0,0,0,2.88-5.13l2.12-4.3c.91-1.83,1.72-3.37,2.61-5,5.74-10.32,10.37-14.78,23.22-21.2Zm-22.34,21.7c-.89,1.59-1.69,3.12-2.6,4.94l-2.11,4.3a52.61,52.61,0,0,1-2.94,5.23,39.76,39.76,0,0,1-5.44,6.63c-2,2-4.62,3.51-11.35,6.87s-9.2,4.8-11.1,6.69c-2.33,2.34-2.08,4.37,1.38,6.67,4.7,3.14,6,5.46,7,10.3.78,3.7,2.09,4.62,8.75,4.62,5.5,0,7.57,2.57,8.15,7.75.06.5.09.82.17,1.84.25,3.06.55,4.17,1.46,4.72,1.2.74,3.69.13,8-2.25a71.72,71.72,0,0,0,8.82-5.8c3.55-2.7,13.34-11.65,15.24-13.07,3.79-2.83,7.18-4.19,11.18-4.19,6.77,0,11.8-3.67,18.83-12l3.45-4.13c1.07-1.29,2.2-2.53,3.37-3.72a11.79,11.79,0,0,1,5-2.91,29,29,0,0,1,4-.89c3-.55,4.07-1,4.65-2.23.76-1.59.28-4.5-1.74-9.43q-1.56-3.78-2.74-7.69c-.31-1-1.4-4.8-1.66-5.61-1.95-6.2-4.16-7.39-15.14-7.39-6.5,0-10.61-1.93-15-6-.44-.4-2.46-2.37-3-2.86-3.65-3.3-6.52-3.85-11.79-1.21-12.67,6.33-17.15,10.65-22.78,20.8Zm55.86,11.93c-3,6.45-16.78,15.26-26.74,15.26-5.33,0-7.56-3-7.11-7.86A25.61,25.61,0,0,1,497.38,478l1.52-2.32c.59-.92,1.22-1.82,1.88-2.7,3.66-4.8,7.85-7.45,13.62-7.45,9.06,0,15.75,9.52,12.9,15.68Zm-.9-.42c2.52-5.47-3.65-14.26-12-14.26-5.4,0-9.33,2.48-12.82,7.06-.6.8-1.17,1.6-1.85,2.64,0,0-1.2,1.87-1.52,2.33a24.81,24.81,0,0,0-3.77,10.14c-.4,4.33,1.43,6.77,6.12,6.77,9.57,0,23-8.58,25.83-14.68ZM456.73,501.5a13.26,13.26,0,0,1,5.88,1.8c2.12,1.47,2.2,3.6-.26,6.05-5.14,5.15-12.85,4.34-12.85-1.35,0-4.66,3.14-6.84,7.23-6.5Zm-.09,1c-3.56-.3-6.14,1.5-6.14,5.5,0,4.58,6.53,5.26,11.15.65,2-2,2-3.43.4-4.52a12.22,12.22,0,0,0-5.4-1.63Zm29.59-225.95c4.64,2.35,17.27,8.24,19.39,9.43a24.08,24.08,0,0,1,7,5.64,44.53,44.53,0,0,1,3.75,5.2c2.4,3.78,0,7.66-6.2,11.63-5,3.16-12.18,6.3-22,9.82-4.84,1.74-19.63,6.68-21.1,7.2-6.59,2.33-14.85.1-25.14-5.86-3.93-2.27-8-5-12.94-8.54-2.23-1.61-9.5-7-10.7-7.85a80.93,80.93,0,0,0-8.63-5.7c-4.82-2.6-4.45-6.64.17-12.13,3.27-3.88,4.17-4.67,18.1-16.33q4.55-3.75,8.89-7.74,2.44-2.25,4.72-4.66c5.08-5.43,9.8-6.49,15-3.92a32.65,32.65,0,0,1,7.43,5.52c1.48,1.37,6.94,6.72,8,7.7,5.2,4.91,9.46,8.2,14.2,10.6Zm-.46.9c-4.85-2.45-9.18-5.79-14.44-10.76-1.05-1-6.5-6.34-8-7.69a32.38,32.38,0,0,0-7.2-5.37c-4.75-2.36-9-1.4-13.8,3.71-1.53,1.62-3.12,3.2-4.76,4.71-2.48,2.3-5.16,4.62-8.92,7.77-13.86,11.6-14.77,12.4-18,16.21-4.28,5.08-4.58,8.4-.46,10.61a82.67,82.67,0,0,1,8.74,5.77c1.2.87,8.47,6.24,10.7,7.85q6.21,4.56,12.85,8.49c10.06,5.82,18.07,8,24.3,5.78,1.48-.52,16.27-5.47,21.1-7.2,9.7-3.5,16.86-6.61,21.75-9.72,5.84-3.71,7.9-7.1,5.9-10.26a43.7,43.7,0,0,0-3.67-5.08,23.11,23.11,0,0,0-6.78-5.42c-2.08-1.16-14.68-7.05-19.36-9.4Zm-38.83,8.05a19.47,19.47,0,0,1,8.4.7c2.15.66,2.74.93,8.64,3.77a121.38,121.38,0,0,0,13.19,5.56q12.57,4.46,8.83,9.76c-2.08,2.94-8,5.92-17.84,9.18-8.45,2.82-15.48,2.35-21.43-.9-4.65-2.55-8.33-6.5-12.15-12.3-2.9-4.41-2.73-8.2.16-11.06,2.48-2.45,6.87-4.07,12.2-4.7Zm.12,1c-5.13.6-9.33,2.16-11.62,4.42-2.53,2.5-2.68,5.77,0,9.8,3.73,5.68,7.3,9.51,11.8,12,5.7,3.11,12.43,3.57,20.62.84,9.59-3.2,15.44-6.12,17.34-8.82s-.5-5.45-8.35-8.24a124.24,124.24,0,0,1-13.28-5.6c-5.84-2.81-6.42-3.07-8.5-3.71a18.37,18.37,0,0,0-8-.66ZM202.5,500.39c0,4.78-1.45,7.56-4.43,8.93-2.29,1.05-4.55,1.23-10.79,1.2H185.5c-9.19,0-17-7.65-17-15.5,0-7.59,10.6-10.51,19.74-5.44,2.78,1.55,4.21,1.94,8.57,2.75s5.69,2.27,5.69,8.07Zm-1,0c0-5.3-.9-6.34-4.88-7.08-4.45-.83-6-1.25-8.86-2.86-8.57-4.76-18.26-2.1-18.26,4.56,0,7.3,7.36,14.5,16,14.5h1.79c6.06,0,8.26-.14,10.36-1.1,2.6-1.2,3.85-3.6,3.85-8Zm33.33-117.85c3.71-1.31,8.7-2.7,16.1-4.55,2.58-.65,16.53-4,20.56-5.05C291.08,368,303,364,309.72,359.59c14.93-9.95,36.87-33.88,43.83-47.8,2.25-4.5,4.65-6.38,7.68-6.25a12.28,12.28,0,0,1,4.32,1.2c1.2.52,2.38,1.09,3.54,1.7l1.26.63c4.78,2.34,8.38,3.44,12.65,3.44,7.2,0,10,3.07,8.35,7.91-1.4,4.06-5.92,8.91-11.1,12-8.3,5-11.75,17.3-11.75,33.57a10.07,10.07,0,0,1-4,8.36c-2,1.58-4.2,2.6-8.47,4.16l-1,.37c-4.85,1.75-7,2.77-8.68,4.46-5.09,5.1-12.54,7.15-20.35,7.15-1.38,0-2.47.92-4,3.1-.29.41-1.32,1.95-1.47,2.18-2.68,3.92-4.93,5.72-8.54,5.72-7.84,0-10.74.93-21.76,6.94-5.18,2.82-8.8,3.58-14.66,3.68-.26,0-.47,0-.92,0-4.82.06-7.12.3-10.51,1.34a72.6,72.6,0,0,0-8.89,3.56c-2.17,1-10.53,5-10.23,4.87a120.41,120.41,0,0,1-18.9,7.57c-12.41,3.55-18.58,2.24-27.42-4.07-2.58-1.85-2.72-4.43-.83-7.62,1.45-2.45,3.9-5.09,8.08-9l1.78-1.64c3.92-3.6,4.48-4.11,5.9-5.53,2.32-2.32,3.12-3.5,5.48-7.63a18.18,18.18,0,0,1,6.27-7.06,42.44,42.44,0,0,1,9.44-4.43Zm.34.94A41.14,41.14,0,0,0,226,387.8a17.24,17.24,0,0,0-6,6.73c-2.4,4.2-3.24,5.44-5.64,7.83-1.43,1.44-2,2-5.94,5.57l-1.77,1.63c-4.1,3.82-6.52,6.41-7.9,8.75-1.65,2.79-1.54,4.8.55,6.3,8.6,6.14,14.46,7.38,26.57,3.92A120.58,120.58,0,0,0,244.6,421c-.3.14,8.06-3.88,10.24-4.88a74.52,74.52,0,0,1,9-3.6c3.51-1.09,5.89-1.33,10.8-1.4h.91c5.72-.1,9.18-.83,14.2-3.57,11.16-6.08,14.2-7.06,22.24-7.06,3.19,0,5.2-1.6,7.71-5.28l1.48-2.2c1.7-2.43,3-3.52,4.81-3.52,7.57,0,14.78-2,19.65-6.85,1.83-1.84,4-2.9,9-4.7l1-.37c8.6-3.13,11.79-5.67,11.79-11.58,0-16.6,3.53-29.2,12.24-34.43,5-3,9.35-7.67,10.66-11.48,1.42-4.13-.83-6.59-7.4-6.59-4.45,0-8.19-1.14-13.09-3.54-7.52-3.67-6.78-3.34-8.72-3.43-2.58-.1-4.65,1.52-6.74,5.7-7,14.07-29.1,38.14-44.17,48.19-6.81,4.54-18.84,8.52-38.55,13.48-4,1-18,4.4-20.56,5-7.37,1.84-12.33,3.23-16,4.52Zm16.83,4a46.25,46.25,0,0,0,7.25-.69c5.22-.77,6.64-.9,8.46-.5,2.52.56,3.79,2.35,3.79,5.69,0,4.05-2.27,7.29-6.62,10.11-3.24,2.1-6.53,3.53-14.15,6.4l-.27.1-2.28.86c-3,1.16-5.27,2.52-9.33,5.43l-.8.57c-8.19,5.88-13.35,8-23.05,8-5,0-6.88-2-5.75-5.62.87-2.81,3.58-6.56,7.8-11.13q1.89-2.06,4.15-4.3c3.17-3.14,11.25-10.61,11.45-10.8a14.6,14.6,0,0,1,1.4-1.26c3.38-2.71,5.77-3.08,14.18-2.93,1.65,0,2.63,0,3.77,0Zm0,1c-1.15,0-2.13,0-3.79,0-8.18-.14-10.4.2-13.54,2.71a15.58,15.58,0,0,0-1.32,1.18c-.2.21-8.3,7.69-11.45,10.82-1.4,1.39-2.78,2.81-4.12,4.26-4.12,4.47-6.76,8.12-7.58,10.75-.9,2.88.45,4.32,4.8,4.32,9.46,0,14.44-2.07,22.46-7.84l.8-.57c4.13-3,6.42-4.36,9.56-5.56l2.3-.86.25-.1c7.55-2.84,10.8-4.25,14-6.3,4.08-2.65,6.16-5.6,6.16-9.27,0-2.89-1-4.26-3-4.7-1.65-.37-3.05-.25-8.1.5a46.78,46.78,0,0,1-7.4.7Zm112.47-45.34c-1.88,5.44-2,6.76-1,12.76,1.18,7.06-1.38,16.58-5.49,16.58-.5,0-1,0-1.51.07l-.64,0a29.76,29.76,0,0,1-6.94-.17c-6.55-1.06-10.41-5.14-10.41-13.44,0-13.9,2.14-19.69,8.13-26.33a22,22,0,0,0,2.52-3.75c.59-1,2.78-5.13,2.72-5,4.44-8.14,7.71-11.53,12.25-10.4a13.11,13.11,0,0,1,3.58,1.59l1.39.84a19.75,19.75,0,0,0,3.1,1.6c.7.27,1.8.32,4.75.26h.72c3.16-.05,4.78.08,5.83.66,1.61.89,1.2,2.56-1.14,4.9q-1.91,1.9-3.86,3.76c-10.6,10.1-12.75,12.4-14,16.05Zm-.94-.32c1.34-3.9,3.46-6.17,14.27-16.46,1.55-1.47,2.73-2.62,3.85-3.73,1.94-2,2.17-2.88,1.35-3.33s-2.37-.58-5.32-.53H377c-3.14.06-4.26,0-5.14-.34a20.19,20.19,0,0,1-3.25-1.67l-1.38-.83a12.13,12.13,0,0,0-3.31-1.47c-3.88-1-6.92,2.17-11.13,9.9.07-.13-2.14,4-2.73,5a22.12,22.12,0,0,1-2.65,3.92c-5.81,6.47-7.87,12-7.87,25.67,0,7.79,3.48,11.47,9.57,12.45a28.31,28.31,0,0,0,6.71.16l1.23-.07c.42,0,.73,0,1,0,3.2,0,5.6-8.9,4.5-15.42-1-6.16-.91-7.64,1-13.24Zm-9.26,12.42c.58.52,2.5,1.9,2.55,1.93,2,1.57,2,3.31,0,6.36-3.74,5.64-8.83,3.09-8.83-4.55,0-3.81.51-5.67,2.07-6,1.18-.26,2,.3,4.2,2.28Zm-1.34,1.48c-1.5-1.35-2.23-1.85-2.43-1.8s-.5,1.23-.5,4.06c0,5.87,2.67,7.21,5.17,3.45,1.5-2.26,1.47-2.84.4-3.7,0,0-1.95-1.4-2.64-2Zm222.9-130.19a35.75,35.75,0,0,1,5.88-2.36l.28-.09a48.85,48.85,0,0,0,8.79-3.55c4.17-2.08,6.35-1.88,7,.84.44,2,.2,4-1.25,12.7-2.27,13.62-9.16,26.14-21.17,36.3-4.3,3.63-7.41,4.39-9.75,2.44-1.88-1.57-3.1-4.57-4.61-10.48-.3-1.15-1.43-5.83-1.72-7-.77-3.11-1.68-6.19-2.71-9.22-2.4-6.82-3-10.78-2.1-12.94.77-1.83,2.08-2.24,5.6-2.45a27.1,27.1,0,0,0,3-.28l2-.33c.72-.12,1.22-.2,1.68-.29,1.1-.2,1.92-.38,2.71-.6a37.53,37.53,0,0,0,6.49-2.73Zm.44.9a38.29,38.29,0,0,1-6.65,2.79c-.84.23-1.69.42-2.81.63s-2.54.44-3.81.63a24.6,24.6,0,0,1-2.92.28c-3.13.18-4.17.51-4.74,1.85-.78,1.84-.2,5.62,2.13,12.2q1.56,4.59,2.74,9.31l1.72,7c1.46,5.7,2.62,8.58,4.28,10,1.87,1.56,4.49.93,8.47-2.44,11.82-10,18.6-22.3,20.83-35.7,1.4-8.45,1.65-10.51,1.25-12.31s-1.86-2-5.54-.16a49.35,49.35,0,0,1-8.93,3.6l-.28.1A35.63,35.63,0,0,0,576.27,227.46Zm-4.5,6.58a18.07,18.07,0,0,0,3.9-1.42c.35-.18,2.57-1.31,3.32-1.67a41.45,41.45,0,0,1,4.7-1.89c2.7-.9,4.64-.77,5.88.4,1,.94,1.34,2.26,1.41,4.18,0,.4,0,.7,0,1.37,0,5.63-4.63,16.88-11.34,22.75-4.34,3.8-7.31,4.67-9.92,2.52-2.06-1.7-3.5-4.65-6.67-12.91-1.86-4.83-2.05-8.1-.68-10.2,1.12-1.7,2.9-2.36,5.83-2.7l1.26-.12a20.14,20.14,0,0,0,2.3-.31Zm-2.1,2.3-1.22.12c-2.4.27-3.7.76-4.39,1.81-.93,1.43-.78,4.1.87,8.38,3,7.84,4.41,10.71,6.08,12.09s3.64.75,7.33-2.48C584.6,250.78,589,240.09,589,235c0-.64,0-.93,0-1.29a4.07,4.07,0,0,0-.79-2.8c-.6-.57-1.8-.65-3.87,0a37.59,37.59,0,0,0-4.47,1.8c-.72.34-2.93,1.47-3.32,1.66a19.41,19.41,0,0,1-4.3,1.56,17.16,17.16,0,0,1-2.56.36Zm-227.73-89c-1.59,4.3-3.54,7.25-7.14,11.4l-2.6,3c-.91,1.05-1.79,2.13-2.63,3.23a46.56,46.56,0,0,0-4.68,7.5A35.22,35.22,0,0,1,312,186.35c-4.25,2.76-8.25,4.62-15.67,7.59-11,4.4-16.43,1.26-27.22-16.4-2.86-4.69-8.8-8.63-18-12.66-3-1.33-12.88-5.24-14.43-5.92-5-2.18-7-3.72-6.42-5.85.67-2.32,5.3-4.05,15.48-6.08,16.63-3.32,26.93-3.82,39.93-3,7.9.49,9.67.5,12.74-.26a20,20,0,0,0,6-2.6l2.79-1.71c9.86-6.14,12.94-8,17.3-9.9,6-2.71,10.57-3.32,13.94-1.4,7.2,4.12,7.68,7.7,3.44,19.22Zm-1.88-.7c3.95-10.7,3.6-13.26-2.56-16.78-2.66-1.52-6.62-1-12.12,1.48-4.24,1.9-7.3,3.7-17.07,9.77l-2.79,1.73A22.57,22.57,0,0,1,299,145.7c-3.36.81-5.22.8-13.34.3-12.84-.78-23-.29-39.41,3a75.11,75.11,0,0,0-10.79,2.75c-2,.76-3,1.45-3.17,1.91s1.48,1.79,5.3,3.46c1.5.67,11.39,4.58,14.44,5.93,9.52,4.19,15.74,8.3,18.87,13.44,10.35,16.93,14.87,19.56,24.78,15.6,7.3-2.93,11.21-4.75,15.33-7.42a33.37,33.37,0,0,0,12.15-13.1,47.74,47.74,0,0,1,4.86-7.82q1.3-1.71,2.72-3.33l2.6-3c3.46-4,5.28-6.75,6.77-10.79Zm-6.64-.39c-7.94,12.8-18.53,21.75-33.3,25.23-7.82,1.83-12.47-.79-13.12-5.93-.55-4.45,2.29-9.06,6-9.06,3,0,5.6-1.68,15.38-9.16,1.47-1.12,2.57-2,3.66-2.74,4.4-3.2,7.77-5.17,10.82-6.08,5.57-1.67,9.33-2.15,11.35-1.22,2.5,1.14,2.22,4.13-.79,9Zm-.84-.52c2.72-4.4,2.94-6.74,1.21-7.53s-5.32-.33-10.65,1.27c-2.9.87-6.2,2.79-10.51,5.92-1.08.79-2.18,1.62-3.65,2.74-10.08,7.72-12.62,9.36-16,9.36-3,0-5.5,4-5,7.94.56,4.5,4.62,6.78,11.89,5.07,14.48-3.4,24.86-12.18,32.69-24.77ZM461.17,33.54c13.88,5,20.75,5,31.62,0,3-1.37,5.47-2.94,11-6.82s8-5.51,11.14-6.92c4.14-1.88,7.78-2.38,11.22-1.28,3.92,1.26,6.2,12.3,6.78,28.45.5,14.2-.52,28.93-2.46,34.2-1.82,4.93-5.86,8.17-11.51,10A41.54,41.54,0,0,1,506,93c-5.79,0-9,2.4-12.2,7.64-.37.59-1.55,2.6-1.71,2.87-1.75,2.9-3,4.33-4.93,5a31.33,31.33,0,0,0-3.87,1.74l-2.43,1.23c-1,.53-1.87.94-2.7,1.34-6.43,3.1-11.73,4.72-17.16,4.72-5.71,0-10,2.09-14,5.92-1.16,1.11-4.2,4.53-4.63,4.94-2.54,2.44-5.93,4.24-10.85,6.1-1.4.52-6,2.13-6.25,2.22l-2.06.78a14.66,14.66,0,0,1-2.7.81c-5.55,1.14-11.14-.54-18-4.42-1.27-.73-5.13-3.06-5.76-3.42-2.05-1.16-4.12-1.53-9.09-1.9l-1.73-.15c-4.78-.4-7.68-1.14-10.22-3-5-3.61-6.77-7.76-5.65-12.33,1.33-5.42,6.5-11,14.85-17.28,2.13-1.59,4.3-3.12,6.5-4.61-.33.23,4.33-2.92,5.3-3.6,2.73-1.91,4.8-3.9,12.75-12l1.09-1.1c3.49-3.56,5.89-5.89,8.12-7.83,2.9-2.5,4.72-5.95,7.5-13L426.8,52c2.7-6.92,4.28-10,6.87-12.33,1.42-1.28,6.68-6.54,7.93-7.5,4-3,8-2.73,19.57,1.4Zm-.34.94c-11.26-4-15-4.28-18.62-1.53-1.19.9-6.4,6.11-7.88,7.43-2.42,2.18-4,5.19-6.6,11.95l-.63,1.61c-2.83,7.26-4.72,10.8-7.77,13.45q-4.77,4.23-9.16,8.87c-8,8.2-10.08,10.2-12.88,12.16-1,.69-5.65,3.84-5.31,3.6-2.5,1.71-4.52,3.13-6.47,4.59-8.17,6.13-13.23,11.6-14.48,16.72-1,4.15.58,7.9,5.26,11.27,2.36,1.7,5.11,2.4,9.72,2.8l1.73.13c5.12.4,7.28.78,9.5,2.05.65.36,4.5,2.7,5.76,3.4,6.66,3.78,12,5.4,17.29,4.32a14,14,0,0,0,2.52-.75c.7-.28,1.4-.55,2.1-.8.28-.1,4.86-1.7,6.24-2.22,4.8-1.8,8.08-3.56,10.5-5.88.4-.38,3.44-3.8,4.63-4.94,4.16-4,8.72-6.2,14.72-6.2,5.25,0,10.42-1.59,16.73-4.62.82-.4,1.65-.8,2.68-1.33.12-.06,1.93-1,2.43-1.23a32.23,32.23,0,0,1,4-1.8c1.6-.52,2.76-1.82,4.39-4.52l1.7-2.88C496.32,94.63,499.8,92,506,92a40.68,40.68,0,0,0,12.64-1.77c5.4-1.76,9.2-4.8,10.9-9.41,1.87-5.11,2.9-19.75,2.39-33.83-.56-15.53-2.81-26.48-6.08-27.52s-6.57-.55-10.5,1.23c-3,1.37-5.47,2.94-11,6.83s-8.05,5.5-11.14,6.92c-11.13,5.05-18.26,5.05-32.38,0ZM475,55c5.38,0,7.55-.21,9.72-1,1.26-.43,9.95-4.8,14.88-7,1.9-.82,3.56-2.44,6.6-6a42.35,42.35,0,0,1,4.4-4.84c3.7-3.35,7.07-3.28,10.22,1.23,6.23,8.9,5.61,15.94.07,27q-1.36,2.69-2.5,5.48c-.32.8-1,2.7-1.09,2.9a8.52,8.52,0,0,1-.54,1.17c-.63,1.14-1.56,2.21-4,4.7S507.55,82,501,83c-1.81.3-2.2.36-3,.51-6,1.1-9.6,2.69-12.24,6.07-3.57,4.59-7.9,7.48-15,10.74-.55.24-1.1.5-1.8.8l-1.78.8a59.78,59.78,0,0,0-7.7,3.9c-2.57,1.6-4.79,2.35-9.42,3.46-8.58,2.06-12.28,3.76-17.37,9.36s-10.17,7.64-16.63,6.7c-5.36-.79-10.63-3-23.56-9.48-6.3-3.15-6.43-7.78-1.5-13.56,3.38-3.94,3.52-4.06,19.4-16.44,8.12-6.33,13-10.57,16.63-14.88a23.83,23.83,0,0,0,5-8.3c5.5-18.3,12.5-22,22.78-15.56,1.95,1.22,6.61,4.55,7.18,4.9C465.36,54.21,468.52,55,475,55Zm0,2c-6.84,0-10.37-.89-14.08-3.26-.63-.4-5.27-3.71-7.16-4.9-9.05-5.65-14.66-2.7-19.8,14.45a25.92,25.92,0,0,1-5.35,9c-3.78,4.45-8.7,8.75-16.94,15.17-15.66,12.21-15.86,12.38-19.1,16.16-4.17,4.9-4.09,8,.88,10.48,12.71,6.35,17.89,8.54,22.94,9.28,5.78.84,10.18-.9,14.87-6.06,5.42-6,9.45-7.82,18.38-10,4.43-1.07,6.5-1.76,8.83-3.22a62.22,62.22,0,0,1,7.94-4l1.78-.8,1.78-.8c6.82-3.13,10.91-5.87,14.24-10.14,3-3.87,7-5.64,13.46-6.82.83-.15,1.21-.21,3-.51,6.1-1,8.6-1.78,10.58-3.77C513.65,74.94,514.5,74,515,73a7.67,7.67,0,0,0,.44-.94c.06-.15.75-2.06,1.09-2.9.64-1.6,1.45-3.4,2.57-5.64,5.24-10.49,5.8-16.8.07-25-2.4-3.44-4.37-3.48-7.24-.89a42,42,0,0,0-4.22,4.65c-3.24,3.85-5,5.59-7.32,6.59-4.82,2.1-13.62,6.53-15,7C482.93,56.78,480.58,57,475,57Zm-12.7,8.6c5.47,3.9,10.34,3.72,18.23.88,5.39-1.94,5.92-2.1,7.7-2.1,2.5,0,4.21,1.36,5.24,4.46,1.66,5-2.32,8.52-12.3,12.68-2.7,1.13-16.25,6.18-20,7.73-7.86,3.24-13.93,6.42-18.87,10.15-13,9.84-18.36,11.93-23.71,9.68a24.91,24.91,0,0,1-3.62-2l-2-1.28c-.74-.48-1.49-.94-2.24-1.4-3.33-2-2.82-4.28.85-7.34,1.35-1.13,10.66-7.61,13.53-9.91,7.1-5.69,11.91-11.47,14.41-18.34,3.07-8.45,4.89-12.1,6.8-13.39,1.73-1.16,3.36-.53,6.18,1.9.63.56,3.4,3.08,4.11,3.7a69.73,69.73,0,0,0,5.67,4.55Zm-.6.8a71.35,71.35,0,0,1-5.74-4.6c-.73-.64-3.48-3.16-4.1-3.7-2.5-2.16-3.75-2.65-5-1.83-1.66,1.11-3.44,4.7-6.42,12.9-2.57,7.07-7.5,13-14.72,18.78-2.91,2.33-12.21,8.8-13.52,9.9-3.22,2.68-3.56,4.17-1,5.72l2.26,1.4,2,1.28a23,23,0,0,0,3.47,1.91c4.9,2.07,10,.07,22.72-9.56,5-3.79,11.15-7,19.1-10.28,3.76-1.55,17.3-6.6,20-7.72,9.5-4,13.14-7.2,11.73-11.44-.9-2.71-2.25-3.8-4.3-3.79-1.6,0-2.15.17-7.36,2.05-8.17,2.94-13.34,3.14-19.16-1Z"/></g></g></svg>