<svg xmlns="http://www.w3.org/2000/svg" xmlns:xlink="http://www.w3.org/1999/xlink" viewBox="0 0 100 600"><defs><style>.cls-1{fill:#333;}.cls-2{fill:#2b2b2b;fill-opacity:0.6;}.cls-10,.cls-11,.cls-12,.cls-13,.cls-14,.cls-3,.cls-4,.cls-5,.cls-6,.cls-7,.cls-8,.cls-9{fill-opacity:0.5;}.cls-3{fill:url(#Gradient_bez_nazwy_2);}.cls-4{fill:url(#Gradient_bez_nazwy_2-2);}.cls-5{fill:url(#Gradient_bez_nazwy_2-3);}.cls-6{fill:url(#Gradient_bez_nazwy_2-4);}.cls-7{fill:url(#Gradient_bez_nazwy_2-5);}.cls-8{fill:url(#Gradient_bez_nazwy_2-6);}.cls-9{fill:url(#Gradient_bez_nazwy_2-7);}.cls-10{fill:url(#Gradient_bez_nazwy_2-8);}.cls-11{fill:url(#Gradient_bez_nazwy_2-9);}.cls-12{fill:url(#Gradient_bez_nazwy_2-10);}.cls-13{fill:url(#Gradient_bez_nazwy_2-11);}.cls-14{fill:url(#Gradient_bez_nazwy_2-12);}</style><linearGradient id="Gradient_bez_nazwy_2" x1="-404" y1="651" x2="-404" y2="687" gradientTransform="matrix(0.5, 0, 0, -0.5, 252, 342)" gradientUnits="userSpaceOnUse"><stop offset="0" stop-opacity="0"/><stop offset="1"/></linearGradient><linearGradient id="Gradient_bez_nazwy_2-2" y1="549" y2="587" xlink:href="#Gradient_bez_nazwy_2"/><linearGradient id="Gradient_bez_nazwy_2-3" y1="451" y2="487" xlink:href="#Gradient_bez_nazwy_2"/><linearGradient id="Gradient_bez_nazwy_2-4" y1="349" y2="387" xlink:href="#Gradient_bez_nazwy_2"/><linearGradient id="Gradient_bez_nazwy_2-5" y1="251" y2="287" xlink:href="#Gradient_bez_nazwy_2"/><linearGradient id="Gradient_bez_nazwy_2-6" y1="149" y2="187" xlink:href="#Gradient_bez_nazwy_2"/><linearGradient id="Gradient_bez_nazwy_2-7" y1="51" y2="87" xlink:href="#Gradient_bez_nazwy_2"/><linearGradient id="Gradient_bez_nazwy_2-8" y1="-51" y2="-13" xlink:href="#Gradient_bez_nazwy_2"/><linearGradient id="Gradient_bez_nazwy_2-9" y1="-149" y2="-113" xlink:href="#Gradient_bez_nazwy_2"/><linearGradient id="Gradient_bez_nazwy_2-10" y1="-251" y2="-213" xlink:href="#Gradient_bez_nazwy_2"/><linearGradient id="Gradient_bez_nazwy_2-11" y1="-349" y2="-313" xlink:href="#Gradient_bez_nazwy_2"/><linearGradient id="Gradient_bez_nazwy_2-12" y1="-451" y2="-413" xlink:href="#Gradient_bez_nazwy_2"/></defs><g id="Warstwa_2" data-name="Warstwa 2"><g id="Warstwa_1-2" data-name="Warstwa 1"><rect class="cls-1" width="100" height="100"/><rect class="cls-2" x="50" width="50" height="50"/><rect class="cls-2" y="50" width="50" height="50"/><polygon class="cls-3" points="50 15 0 0 100 0 50 15"/><polygon class="cls-4" points="50 50 0 65 0 50 100 50 100 65 50 50"/><rect class="cls-1" y="100" width="100" height="100"/><rect class="cls-2" x="50" y="100" width="50" height="50"/><rect class="cls-2" y="150" width="50" height="50"/><polygon class="cls-5" points="50 115 0 100 100 100 50 115"/><polygon class="cls-6" points="50 150 0 165 0 150 100 150 100 165 50 150"/><rect class="cls-1" y="200" width="100" height="100"/><rect class="cls-2" x="50" y="200" width="50" height="50"/><rect class="cls-2" y="250" width="50" height="50"/><polygon class="cls-7" points="50 215 0 200 100 200 50 215"/><polygon class="cls-8" points="50 250 0 265 0 250 100 250 100 265 50 250"/><rect class="cls-1" y="300" width="100" height="100"/><rect class="cls-2" x="50" y="300" width="50" height="50"/><rect class="cls-2" y="350" width="50" height="50"/><polygon class="cls-9" points="50 315 0 300 100 300 50 315"/><polygon class="cls-10" points="50 350 0 365 0 350 100 350 100 365 50 350"/><rect class="cls-1" y="400" width="100" height="100"/><rect class="cls-2" x="50" y="400" width="50" height="50"/><rect class="cls-2" y="450" width="50" height="50"/><polygon class="cls-11" points="50 415 0 400 100 400 50 415"/><polygon class="cls-12" points="50 450 0 465 0 450 100 450 100 465 50 450"/><rect class="cls-1" y="500" width="100" height="100"/><rect class="cls-2" x="50" y="500" width="50" height="50"/><rect class="cls-2" y="550" width="50" height="50"/><polygon class="cls-13" points="50 515 0 500 100 500 50 515"/><polygon class="cls-14" points="50 550 0 565 0 550 100 550 100 565 50 550"/></g></g></svg>