<svg xmlns="http://www.w3.org/2000/svg" viewBox="0 0 400 400"><defs><style>.cls-1{fill:#fff;}</style></defs><g id="Warstwa_2" data-name="Warstwa 2"><g id="Warstwa_1-2" data-name="Warstwa 1"><rect class="cls-1" x="0.5" y="0.5" width="399" height="399" rx="11.5"/><path d="M388,1a11,11,0,0,1,11,11V388a11,11,0,0,1-11,11H12A11,11,0,0,1,1,388V12A11,11,0,0,1,12,1H388m0-1H12A12,12,0,0,0,0,12V388a12,12,0,0,0,12,12H388a12,12,0,0,0,12-12V12A12,12,0,0,0,388,0Z"/><path class="cls-1" d="M37,374.5a11.41,11.41,0,0,1-7.52-2.82c5-3.08,39.7-33.51,345-333.49v324.6L362.79,374.5Zm-8.64-3.93A11.41,11.41,0,0,1,25.5,363V37A11.51,11.51,0,0,1,37,25.5H361.81C79.84,312.48,32.83,363.45,28.36,370.57Z"/><path d="M360.62,26C72.55,319.2,33.56,362.21,28.29,369.7A10.93,10.93,0,0,1,26,363V37A11,11,0,0,1,37,26H360.62M374,39.38V362.59L362.59,374H37a10.93,10.93,0,0,1-6.7-2.29c7.46-5.24,50.33-44.1,343.7-332.33M363,25H37A12,12,0,0,0,25,37V363a12,12,0,0,0,3.47,8.42c0-3.89,110.12-118,334.53-346.42Zm12,12C146.64,261.37,32.52,371.53,28.58,371.53h0A12,12,0,0,0,37,375H363l12-12V37ZM28.47,371.42a.1.1,0,0,0,.11.11l-.11-.11Z"/></g></g></svg>