<svg xmlns="http://www.w3.org/2000/svg" viewBox="0 0 1921 158.17"><defs><style>.cls-1{fill:#fff;stroke:#000;stroke-miterlimit:10;}</style></defs><g id="Warstwa_2" data-name="Warstwa 2"><g id="Warstwa_1-2" data-name="Warstwa 1"><path class="cls-1" d="M1920.5,67.42A371.61,371.61,0,0,0,1707.17.5c-33.65,0-68.27,4.12-100.7,13.35-27.86,7.93-59.48,32.78-88.82,30.75-12-.83-23-6.52-33.91-11.57-92.91-43-204.56-43.26-297.7-.77-13.56,6.18-27.59,13.4-42.46,12.29-10.68-.8-20.5-5.85-30.2-10.38-96.93-45.23-214.14-44.47-310.47,2-8.69,4.19-17.55,8.82-27.19,9.31-12,.6-23.2-5.27-34-10.45C647.88-9.82,534.19-10.88,439.55,32.23,426.82,38,413.69,44.75,399.71,44c-8.08-.42-15.79-3.31-23.36-6.18C321.55,17.1,273.36.5,213.83.5A371.61,371.61,0,0,0,.5,67.42v90.25h1920Z"/></g></g></svg>