<svg xmlns="http://www.w3.org/2000/svg" viewBox="0 0 425.49 151.46"><defs><style>.cls-1{fill:#89804a;}.cls-2{fill:#2d443d;}.cls-3{fill:#282a29;}.cls-4{fill:#e6edb3;}.cls-5{fill:#e0e1dd;}.cls-6{fill:#74b6a0;}.cls-7{fill:#67a18e;}.cls-8{fill:#cdd8f3;}</style></defs><g id="Warstwa_2" data-name="Warstwa 2"><g id="Layer_1" data-name="Layer 1"><path class="cls-1" d="M39.36,59H49.92a4,4,0,0,1,4,4V71.4a4,4,0,0,1-4,4H39.36a5.87,5.87,0,0,1-5.87-5.87V64.89A5.87,5.87,0,0,1,39.36,59Z"/><path class="cls-2" d="M403.66,111.38c-3.23-9.46-13.24-30.15-39.58-33.56-34.79-4.51-45.36,38.79-45.36,38.79-1,4.18-2,6.2-4.51,7.53h47.68l44.85-10.75h0A3,3,0,0,1,403.66,111.38Z"/><circle class="cls-3" cx="69.86" cy="116.54" r="34.92"/><circle class="cls-4" cx="69.86" cy="116.54" r="21.46"/><circle class="cls-5" cx="69.86" cy="116.54" r="11.45"/><path class="cls-6" d="M403.66,111.38a3,3,0,0,0,5.37.6c2.09-3.46,2.77-8.77,2-19.73-1.45-19.61-3.61-42.78-20.36-46.13s-74.23-3-81.57-3.22-28.48,3.22-34-6.32S262,8.23,239.34,4.56s-62.11-8.7-106.7,1.35S51.06,50.56,25.93,92.12c0,0-8.11,15.66-15.07,18,0,0-12.5,6.12,29.25,9.47s249.48,10,265.34,7c10.05-1.93,11.47-2.71,13.27-9.92,0,0,10.57-43.3,45.36-38.79C390.42,81.23,400.43,101.92,403.66,111.38Z"/><path class="cls-1" d="M403,55.11l-9.09.51a1.38,1.38,0,0,0-1,2.28c4,4.65,13.52,15.69,16.73,20.05C408.54,69.34,406.68,61.11,403,55.11Z"/><path class="cls-7" d="M364.08,77.82c26.34,3.41,36.35,24.1,39.58,33.56a3,3,0,0,0,5.37.6c1.88-3.12,2.62-7.73,2.16-16.6-5.76-9.41-20.5-30.13-39.37-31.73-24.49-2.07-45.37,1.8-63.92,25s-21.4,25.91-33,27.45-155.61,3.48-158.12,0-7.36-30.48-21.65-41c-12.12-8.89-35.43-8.91-43-3.73-13.66,9.27-29.21,33-36.64,35.63h0a13.07,13.07,0,0,1-4.59,3.09s-12.5,6.12,29.25,9.47,249.48,10,265.34,7c10.05-1.93,11.47-2.71,13.27-9.92C318.72,116.61,329.29,73.31,364.08,77.82Z"/><path class="cls-8" d="M275,36.58c-3.22-5.54-7.12-14.21-14.25-21.23-3.44,0-9.38.26-9.38,2.87,0,1.75,9.87,17,15,23.17a4,4,0,0,0,4.68,1.07c1.95-.87,4.71-2.07,6.73-2.83A9.74,9.74,0,0,1,275,36.58Z"/><path class="cls-8" d="M170.33,20V38a4.82,4.82,0,0,0,4.82,4.82h71.68A3.68,3.68,0,0,0,250,37.26c-4.72-8-14.08-21.91-22.26-21.91H175A4.66,4.66,0,0,0,170.33,20Z"/><path class="cls-8" d="M160.6,18.7V39.56a3.25,3.25,0,0,1-3.24,3.25h-58a3.32,3.32,0,0,1-2.74-5.2c5.28-7.75,20.29-21.5,60.58-22.23A3.33,3.33,0,0,1,160.6,18.7Z"/><circle class="cls-3" cx="358.11" cy="116.54" r="34.92"/><circle class="cls-4" cx="358.11" cy="116.54" r="21.46"/><circle class="cls-5" cx="358.11" cy="116.54" r="11.45"/><path class="cls-5" d="M418.84,113.64h-10a2.06,2.06,0,0,1-2.06-2.06v-5.94a4.37,4.37,0,0,1,4.36-4.37h8.67a5.72,5.72,0,0,1,5.72,5.72h0A6.65,6.65,0,0,1,418.84,113.64Z"/><path class="cls-5" d="M24.24,118.06H8.05a8.05,8.05,0,0,1-8-8H0A8,8,0,0,1,8.05,102H24.24A5.72,5.72,0,0,1,30,107.67v4.67A5.72,5.72,0,0,1,24.24,118.06Z"/><path class="cls-5" d="M190,56.37H173.1a2.77,2.77,0,1,0,2.66,3.54H190a1.77,1.77,0,1,0,0-3.54Z"/><path class="cls-7" d="M322.08,59.14H271.2a2,2,0,0,1-2-2h0a2,2,0,0,1,2-2h50.88a2,2,0,0,1,2,2h0A2,2,0,0,1,322.08,59.14Z"/><path class="cls-7" d="M322.08,65.67H271.2a2,2,0,0,1-2-2h0a2,2,0,0,1,2-2h50.88a2,2,0,0,1,2,2h0A2,2,0,0,1,322.08,65.67Z"/></g></g></svg>